<?xml version="1.0" standalone="no"?>
<!DOCTYPE svg PUBLIC "-//W3C//DTD SVG 20010904//EN"
 "http://www.w3.org/TR/2001/REC-SVG-20010904/DTD/svg10.dtd">
<svg version="1.0" xmlns="http://www.w3.org/2000/svg"
 width="700.000000pt" height="700.000000pt" viewBox="0 0 700.000000 700.000000"
 preserveAspectRatio="xMidYMid meet">
<metadata>
Created by potrace 1.14, written by Peter Selinger 2001-2017
</metadata>
<g transform="translate(0.000000,700.000000) scale(0.100000,-0.100000)"
fill="#000000" stroke="none">
<path d="M1830 6873 c0 -71 -1 -432 -2 -803 -3 -662 -3 -676 -24 -721 -31 -66
-78 -114 -142 -146 l-57 -28 -795 -1 c-437 -1 -798 -2 -802 -3 -5 -1 -8 -752
-8 -1671 0 -1329 3 -1670 13 -1671 6 0 368 -1 802 -2 780 -2 791 -2 836 -23
66 -31 114 -78 146 -142 l28 -57 2 -790 c1 -434 3 -796 3 -802 0 -10 341 -13
1673 -13 l1672 0 0 803 0 802 28 57 c32 64 80 111 146 142 45 20 58 21 836 22
435 1 796 3 803 3 9 1 12 342 12 1671 l0 1670 -42 0 c-24 1 -385 2 -803 3
-749 2 -761 2 -806 23 -66 31 -113 76 -145 142 l-29 57 -1 800 0 800 -1672 3
-1672 2 0 -127z m2469 -287 c183 -44 332 -157 405 -306 59 -122 65 -170 66
-551 0 -193 5 -363 11 -395 47 -252 229 -453 489 -540 51 -17 105 -19 685 -22
361 -2 632 -7 635 -12 7 -12 4 -558 -4 -589 -44 -184 -158 -332 -310 -406
-125 -60 -147 -62 -691 -62 -579 -1 -591 -2 -704 -68 -83 -49 -156 -133 -234
-271 -131 -232 -193 -335 -220 -369 -41 -51 -126 -88 -201 -88 -111 1 -188 56
-260 188 -18 33 -114 200 -213 370 -246 425 -564 975 -580 1005 -8 14 -23 40
-34 59 -34 57 -281 483 -302 521 -66 119 -70 123 -80 104 -40 -74 -473 -825
-488 -846 -11 -15 -19 -29 -19 -32 0 -2 -19 -37 -43 -78 -24 -40 -55 -93 -69
-118 -156 -276 -182 -311 -265 -351 l-48 -24 -445 -2 c-500 -2 -533 1 -660 63
-103 51 -206 155 -253 255 -56 120 -61 155 -62 465 l-1 281 606 1 c512 0 615
3 672 16 93 22 175 56 244 104 139 95 228 216 280 382 21 68 25 135 28 510 3
321 4 349 24 407 27 79 46 115 93 179 88 120 225 200 379 221 62 9 1532 8
1569 -1z m-1411 -2522 c36 -18 65 -42 92 -78 22 -29 40 -55 40 -58 0 -3 61
-110 135 -237 74 -128 135 -237 135 -242 0 -5 4 -9 8 -9 4 0 13 -12 20 -27 7
-16 18 -37 25 -48 7 -11 33 -56 58 -100 25 -44 87 -152 139 -240 51 -88 102
-176 112 -195 11 -19 44 -75 73 -125 29 -49 139 -241 245 -425 106 -184 208
-361 227 -393 l35 -57 122 212 c67 117 200 348 296 513 95 165 214 371 264
458 108 189 132 219 200 255 l51 27 475 0 c462 0 477 -1 545 -22 187 -59 329
-201 387 -388 21 -65 22 -90 23 -360 l0 -290 -560 -2 c-308 0 -595 -4 -637 -7
-293 -21 -552 -251 -613 -543 -11 -50 -15 -159 -16 -418 -1 -306 -3 -359 -20
-423 -50 -195 -191 -345 -384 -409 l-80 -26 -765 0 c-421 0 -781 2 -800 5
-183 31 -343 150 -425 314 -56 114 -62 168 -63 540 -1 414 -4 437 -73 577 -92
188 -240 308 -448 366 -76 21 -246 25 -1032 22 -208 -1 -268 1 -271 11 -7 21
-1 519 6 572 18 124 110 280 212 359 58 45 153 92 221 108 34 9 211 13 598 15
583 2 601 3 683 51 82 47 94 63 282 393 68 118 134 229 147 247 36 49 83 81
144 96 70 18 121 13 187 -19z"/>
</g>
</svg>
