<svg id="All_work" data-name="All work" xmlns="http://www.w3.org/2000/svg" xmlns:xlink="http://www.w3.org/1999/xlink" viewBox="0 0 364.42 364.43"><defs><style>.cls-1{fill:url(#linear-gradient);}</style><linearGradient id="linear-gradient" x1="1177.89" y1="-441.92" x2="1177.89" y2="109.1" gradientTransform="matrix(1, 0, 0, -1, -933.36, -10.57)" gradientUnits="userSpaceOnUse"><stop offset="0" stop-color="#6ec4c6"/><stop offset="1" stop-color="#0088a8"/></linearGradient></defs><path class="cls-1" d="M346.67,162.06a15,15,0,0,1-15-15V66.92H157.49V147a15,15,0,0,1-15,15H62.32V336.23h80.13a15,15,0,0,1,15,15v80.12H331.62v-80.1a15,15,0,0,1,15-15h80.13V162.06ZM142.45,183.15A36.11,36.11,0,0,0,178.56,147V118a30,30,0,0,1,30-30h72a30,30,0,0,1,30,30h0v29a36.12,36.12,0,0,0,36.12,36.11h59V208.6a30,30,0,0,1-30,30H329.29a25.63,25.63,0,0,0-22.23,12.83l-12.58,21.81a13.84,13.84,0,0,1-23.94,0L206.41,162.15l-39.81,69a15,15,0,0,1-13,7.48H113.37a30,30,0,0,1-30-30V183.15Zm204.22,132a36.14,36.14,0,0,0-36.11,36.1v29a30,30,0,0,1-30,30h-72a30,30,0,0,1-30-30v-29a36.12,36.12,0,0,0-36.12-36.11h-59V289.7a30,30,0,0,1,30-30h50.49a18.25,18.25,0,0,0,15.83-9.14l14.73-25.51a13.82,13.82,0,0,1,23.92,0l64.15,111.09,40.09-69.45a14,14,0,0,1,12.13-7h41a30,30,0,0,1,30,30v25.45Z" transform="translate(-62.32 -66.92)"/></svg>