<svg id="All_work" data-name="All  work" xmlns="http://www.w3.org/2000/svg" xmlns:xlink="http://www.w3.org/1999/xlink" viewBox="0 0 489.07 498.26"><defs><style>.cls-1{font-size:81.68px;fill:#5bb6bf;font-family:Montserrat-ExtraBold, Montserrat;font-weight:800;letter-spacing:0.05em;}.cls-2{fill:url(#linear-gradient);}</style><linearGradient id="linear-gradient" x1="1170" y1="875.04" x2="1170" y2="324.03" gradientUnits="userSpaceOnUse"><stop offset="0" stop-color="#6ec4c6"/><stop offset="1" stop-color="#0088a8"/></linearGradient></defs><text id="name" class="cls-1" transform="translate(0 476.37)">MediPulse</text><path class="cls-2" d="M1272.11,605.72a15,15,0,0,1-15-15V510.57H1082.92v80.12a15,15,0,0,1-15,15H987.76V779.88h80.13a15,15,0,0,1,15,15V875h174.16V794.91a15,15,0,0,1,15-15h80.13V605.72Zm-204.22,21.09A36.12,36.12,0,0,0,1104,590.69v-29a30,30,0,0,1,30-30h72a30,30,0,0,1,30,30v29a36.12,36.12,0,0,0,36.12,36.12h59v25.44a30,30,0,0,1-30,30h-46.39a25.66,25.66,0,0,0-22.23,12.83l-12.59,21.81a13.82,13.82,0,0,1-23.93,0l-64.13-111.09-39.82,69a15,15,0,0,1-13,7.48h-40.23a30,30,0,0,1-30-30V626.81Zm204.22,132A36.12,36.12,0,0,0,1236,794.91v29a30,30,0,0,1-30,30h-72a30,30,0,0,1-30-30v-29a36.12,36.12,0,0,0-36.12-36.11h-59V733.36a30,30,0,0,1,30-30h50.49a18.28,18.28,0,0,0,15.83-9.14l14.73-25.51a13.82,13.82,0,0,1,23.92,0L1208,779.8l40.09-69.45a14,14,0,0,1,12.13-7h41a30,30,0,0,1,30,30V758.8Z" transform="translate(-933.36 -510.57)"/></svg>