<?xml version="1.0" encoding="utf-8"?>
<!-- Generator: Adobe Illustrator 25.3.1, SVG Export Plug-In . SVG Version: 6.00 Build 0)  -->
<svg version="1.1" id="Object" xmlns="http://www.w3.org/2000/svg" xmlns:xlink="http://www.w3.org/1999/xlink" x="0px" y="0px"
	 viewBox="0 0 4680 3120" enable-background="new 0 0 4680 3120" xml:space="preserve">
<g>
	<g>
		<rect x="549.4" y="352.6" fill="#E9F2FF" width="3579.6" height="2404.5"/>
		<rect x="549.4" y="2674.2" fill="#CEDCED" width="3579.6" height="82.9"/>
		<rect x="762.3" y="643.4" fill="#CEDCED" width="944.7" height="984.9"/>
		<rect x="827.6" y="708.6" fill="#E9F2FF" width="814.5" height="854.4"/>
		<polygon fill="#FFFFFF" points="1642,708.6 1642,858.5 876.8,1563 827.6,1563 827.6,1287.3 1456.2,708.6 		"/>
		<rect x="2981" y="643.4" fill="#CEDCED" width="944.7" height="984.9"/>
		<rect x="3046.3" y="708.6" fill="#E9F2FF" width="814.5" height="854.4"/>
		<polygon fill="#FFFFFF" points="3860.7,708.6 3860.7,858.5 3095.5,1563 3046.3,1563 3046.3,1287.3 3674.9,708.6 		"/>
	</g>
	<g>
		<g>
			<rect x="2113.8" y="2325.2" fill="#BAC9D6" width="882" height="363.6"/>
			
				<rect x="2113.8" y="2182.7" transform="matrix(-1 -1.224647e-16 1.224647e-16 -1 5109.7109 4438.1377)" fill="#BAC9D6" width="882" height="72.8"/>
			<rect x="2202.5" y="2255.5" fill="#4F6A93" width="33.1" height="69.7"/>
			<rect x="2869.2" y="2255.5" fill="#4F6A93" width="33.1" height="69.7"/>
			<rect x="2113.8" y="2435.2" fill="#FFFFFF" width="882" height="134.5"/>
			<polygon fill="#4F6A93" points="2852.4,2758.2 2843.4,2688.8 2928,2688.8 2921.1,2758.2 			"/>
			<polygon fill="#4F6A93" points="2195.4,2758.2 2186.3,2688.8 2270.9,2688.8 2264,2758.2 			"/>
		</g>
		<polygon fill="#FFFFFF" points="2397.3,2182.7 2308.5,2182.7 2288.9,2033 2415.4,2033 		"/>
		<path fill="#4AA3E9" d="M2307.2,2074.2l11,98.5h67.1l15.2-116.3c0,0-23.6,11.5-43,5.8C2338.1,2056.3,2317.8,2056.5,2307.2,2074.2z
			"/>
		<rect x="2451.3" y="2038.5" fill="#80D6D0" width="64.5" height="32"/>
		<path fill="#FFFFFF" d="M2458.1,2070.5c0,0-16.8,10-17.8,33.5c-1,23.6,0,78.7,0,78.7h87.5v-77.6c0,0-1-27.2-15.7-34.6H2458.1z"/>
		<g>
			<polygon fill="#FE7288" points="2634.9,1888.5 2606.2,2182.1 2689.9,2182.1 2662.7,1888.5 			"/>
			<path fill="#80D6D0" d="M2640.7,1890.7c-8.6-11.3-24.5-13.8-38.7-13.9c-7.1,0-14.4,0.3-21.2,2.6c-7.1,2.4-13.3,6.8-18.7,12
				c-11.3,11-18.8,25.9-20.9,41.5c6.7-15.1,22.8-23.3,37.8-30.1C2598.5,1894,2619.5,1885.6,2640.7,1890.7z"/>
			<path fill="#3F8A87" d="M2643.7,1888.5c2.1-18-1.5-36.5-10.1-52.4c-3.7-6.8-8.3-13.3-14.2-18.3c-5.6-4.8-12.1-8.2-18.6-11.6
				c-13.8-7.2-28-14.6-43.5-16.1c-0.7,19.2,8.6,38.4,24.1,49.8c7.8,5.7,16.8,9.4,24.9,14.6C2619.9,1863.2,2630.6,1876,2643.7,1888.5
				z"/>
			<path fill="#3F8A87" d="M2640.7,1888.3c5.3-23.9,17.4-46,37-60.7c19.6-14.7,42.6-24.2,65.6-32.7c-9,8.9-14.8,20.7-22.5,30.7
				C2699.8,1852.7,2670.3,1867.4,2640.7,1888.3z"/>
			<path fill="#80D6D0" d="M2638.8,1892.8c13.5-19,26.2-34.5,48.6-40.9c12.2-3.5,25.6-4.8,37.3-0.1c12.9,5.2,21.9,16.7,30.2,27.7
				c-10.7-8.2-25.7-5.5-39.1-3.7c-13.4,1.8-27.1,2.4-40.6,1.6C2662.3,1876.7,2654.9,1877.5,2638.8,1892.8z"/>
			<path fill="#3F8A87" d="M2632.7,1893.2c13.6-9.6,30.5-14.5,47.2-13.7c7.4,0.4,14.9,1.9,21.5,5.2c18.2,9.2,26.9,30.7,29.5,51
				s0.7,41.1,5.1,61c-7.7,0.4-14.3-5.3-19.2-11.3c-8.4-10.2-14.9-22.1-18.8-34.7c-4.3-13.5-5.8-28-12.3-40.6
				C2679.2,1897.5,2665.3,1886.9,2632.7,1893.2z"/>
			<path fill="#80D6D0" d="M2643.7,1888.5c8.5,6.3,6.5,14.3,8.4,24.8c1.9,10.4,1.1,21.1,0.2,31.7c-1.1,13.1-2.3,26.4-6.5,38.8
				c8.3-2.5,14.9-9.3,18.8-17.1c3.9-7.8,5.4-16.5,6.3-25.2c1-9.9,1.2-20.3-2.9-29.3C2664.3,1904,2664.3,1900.1,2643.7,1888.5z"/>
			<path fill="#80D6D0" d="M2638.8,1892.8c13.9-15.4,22.8-35.3,25.1-55.9c1.4-12.9,0.4-25.9,0.9-38.9c0.5-13,2.7-26.3,10-37.1
				c-22.5,9.6-35.1,34.6-38.3,58.9S2637.7,1868.7,2638.8,1892.8z"/>
			<path fill="#3F8A87" d="M2650,1885.7c-15,4.8-30,10.8-42,21c-22.7,19.2-31.5,49.8-38.7,78.6c17-5.8,31.9-17.8,41.2-33.2
				c5.7-9.4,9.3-19.9,14.5-29.6C2632.1,1909.2,2642,1897.8,2650,1885.7z"/>
		</g>
		<path fill="#80D6D0" d="M2483.8,2131.3l55-23.4c0,0,40.5,47.8,78.8,49.4c38.3,1.6,45.5,0,45.5,0c-9.6,12.3-28.8,19.7-52.9,24.6
			l-71.4,0.9C2538.8,2182.7,2501.9,2164.3,2483.8,2131.3z"/>
	</g>
	<g>
		<path fill="#80D6D0" d="M3741.1,2352.4c11.6-53.8,61.5-94.3,115.7-104.1c54.1-9.8,110.6,7.5,156.6,37.7
			c-33.2,35.3-78.5,58.1-125.8,68.6C3840.2,2365.1,3790.8,2363.9,3741.1,2352.4z"/>
		<path fill="#80D6D0" d="M3657.5,2195c-8.7-52.3,5.2-107.9,37.5-149.9c32.2-42.1,82.3-69.9,135-75.2c-1.8,16.9-9.9,32.3-17.9,47.3
			c-19,35.6-38.1,71.3-62.7,103.3C3724.8,2152.4,3694.2,2180.7,3657.5,2195z"/>
		<path fill="#80D6D0" d="M3473.7,2201c-24.7-43.1-28.2-96.5-15.3-144.5c12.8-48,40.8-91,75-127.1c8.9,20.7,9.6,43.9,9.7,66.4
			c0.1,37.5-1.2,75.5-10.6,111.8S3504.9,2179,3473.7,2201z"/>
		<path fill="#80D6D0" d="M3365.3,2359.4c17.5-48.3,13.4-104-11-149.2c-24.4-45.2-68.7-79.3-118.6-91.2
			c12.4,41.6,24.7,83.3,37.1,124.9c7.2,24.4,14.6,49.1,27.8,70.9C3313.7,2336.7,3333.5,2355.6,3365.3,2359.4z"/>
		<path fill="#80D6D0" d="M3305.4,2498.2c-48.1,3.9-92.7,32.9-118.7,73.5s-33.7,91.8-24.3,139.1c5.1-12.5,17.5-20.1,28.7-27.7
			C3252.5,2641.4,3295.7,2574,3305.4,2498.2z"/>
		<g>
			<path fill="#3F8A87" d="M3616.4,2537.2c-0.1,0-0.3,0-0.5,0c-1.4-0.2-2.2-1.6-2-2.9c12-65.2,52.9-128,112-172.2
				c52.1-39,117.1-64.5,193.1-75.8c1.4-0.2,2.6,0.7,2.8,2.1s-0.7,2.6-2.1,2.8c-74.1,11-140.1,36.9-190.9,74.8
				c-58.1,43.5-98.2,105.1-110,169.1C3618.6,2536.3,3617.5,2537.2,3616.4,2537.2z"/>
		</g>
		<g>
			<path fill="#3F8A87" d="M3581.3,2530.7c-1.4,0-2.5-1.1-2.5-2.5c-1.4-81.9,11.3-163.6,37.8-242.7c26.5-79.2,65.4-152,115.8-216.6
				c0.8-1.1,2.4-1.3,3.5-0.4c1.1,0.8,1.3,2.4,0.4,3.5c-101.2,129.7-155.3,291.7-152.5,456.2
				C3583.8,2529.5,3582.7,2530.7,3581.3,2530.7C3581.3,2530.7,3581.3,2530.7,3581.3,2530.7z"/>
		</g>
		<g>
			<path fill="#3F8A87" d="M3485.3,2561.2c-1.1,0-2.1-0.7-2.4-1.8c-23.5-81.8-30-173-20.1-278.6c8.8-93.2,29.4-186,49.3-275.8
				c0.3-1.3,1.6-2.2,3-1.9c1.3,0.3,2.2,1.6,1.9,3c-19.9,89.6-40.4,182.3-49.2,275.2c-9.9,105-3.4,195.5,19.9,276.8
				c0.4,1.3-0.4,2.7-1.7,3.1C3485.8,2561.2,3485.5,2561.2,3485.3,2561.2z"/>
		</g>
		<g>
			<path fill="#3F8A87" d="M3414.2,2554.5c-1.2,0-2.3-0.9-2.5-2.1c-21-129.3-62.3-253.8-122.6-370.1c-0.6-1.2-0.2-2.7,1.1-3.4
				c1.2-0.6,2.7-0.2,3.4,1.1c60.5,116.8,101.9,241.8,123.1,371.6c0.2,1.4-0.7,2.6-2.1,2.9
				C3414.5,2554.5,3414.4,2554.5,3414.2,2554.5z"/>
		</g>
		<g>
			<path fill="#3F8A87" d="M3202.6,2625.5c-0.4,0-0.8-0.1-1.2-0.3c-1.2-0.7-1.6-2.2-1-3.4c17.5-31.8,35.7-64.6,60.9-91.9
				c17-18.4,33.9-30.2,51.6-36.2c24.5-8.2,53.8-5.4,80.3,7.7c22.1,10.9,42.3,28.2,61.7,52.9c0.9,1.1,0.7,2.7-0.4,3.5
				c-1.1,0.9-2.7,0.7-3.5-0.4c-18.9-24.1-38.6-40.9-60-51.5c-25.3-12.5-53.2-15.2-76.5-7.4c-16.9,5.6-33.1,17-49.6,34.8
				c-24.8,26.8-42.8,59.4-60.2,90.9C3204.4,2625,3203.5,2625.5,3202.6,2625.5z"/>
		</g>
		<path fill="#80D6D0" d="M3518.4,2456.4c-13.7-47.8-7.7-101,16.5-144.5s66.1-76.8,113.9-90.4c-7.9,44.9-18.3,89.9-37.9,131.1
			S3562.1,2431.6,3518.4,2456.4z"/>
		<g>
			<path fill="#3F8A87" d="M3509,2548.3C3509,2548.3,3509,2548.3,3509,2548.3c-1.4,0-2.5-1.1-2.5-2.5
				c0.6-92.9,30.5-185.9,84.2-261.8c0.8-1.1,2.4-1.4,3.5-0.6c1.1,0.8,1.4,2.4,0.6,3.5c-53.1,75-82.7,167-83.3,258.9
				C3511.5,2547.2,3510.4,2548.3,3509,2548.3z"/>
		</g>
		<polygon fill="#FFFFFF" points="3628.6,2757.1 3410.1,2757.1 3342.5,2514 3683.6,2514 		"/>
	</g>
	<g>
		<g>
			<path fill="#CEDCED" d="M3341.3,1207v435.3c0,39.1-31.7,70.7-70.7,70.7h-789.9c-39.1,0-70.7-31.7-70.7-70.7V1207
				c0-39.1,31.7-70.7,70.7-70.7h789.9C3309.6,1136.2,3341.3,1167.9,3341.3,1207z"/>
			<path fill="#FFFFFF" d="M3341.3,1207v11.6h-931.4V1207c0-39.1,31.7-70.7,70.7-70.7h789.9
				C3309.6,1136.2,3341.3,1167.9,3341.3,1207z"/>
			<g>
				<polygon fill="#66C7BF" points="3075.2,1276.1 3006.5,1270.2 2930.5,1290.1 2925.8,1441.2 2999.4,1463.7 3083.5,1385.1 				"/>
				<path fill="#FFFFFF" d="M3169.9,1713h-293.1c15-49.9,14.1-102.2,10.8-153.1c-0.5-7.9-1.1-15.7-1.7-23.5
					c-1.1-1.3-2.2-2.5-3.3-3.8c-8.8-10.3-17.2-21.5-23.1-33.7c-3.3-6.8-5.9-14-7.3-21.5c-0.1-0.5-0.2-0.9-0.3-1.4
					c-1.1-6.7-1.3-13.4-1.1-20.2c0.2-6.7,0.9-13.3,1.7-20c3-28.8,6.1-57.7,9.2-86.5c0.5-4.4,0.9-8.8,1.4-13.2
					c0.6-5.7,1.2-11.4,1.8-17.1c0.6-0.4,1.2-0.8,1.8-1.2c22.2-14.2,47.4-27.8,73.5-39.3c13.4,52.4,26.6,105.8,41.1,158.9
					c27-51,45.6-106.1,55.7-163.9c0.5-3,1-6.1,1.5-9.1c0-0.1,0-0.2,0.1-0.4c30,6,59.5,14.7,88.9,26.1c0,0.3,0,0.6,0,0.9
					c-2.5,76.7-1.6,153.5,2.7,230c0.5,8.4,1,16.8,1.5,25.2c0,0.2,0,0.4,0,0.6c0.8,11.9,1.6,23.8,2.6,35.7c3.9,20,8.8,41.5,14.7,63.7
					c0,0,0,0,0,0.1C3154.9,1668.2,3161.8,1690.7,3169.9,1713z"/>
				<g>
					<path fill="#CEDCED" d="M2968,1430.5c-0.5,0-1-0.2-1.2-0.7l-41.1-60.7c-0.8-1.1-1.7-2.6-2-4.3c-0.3-1.8,0.4-3.6,0.9-5l6.6-18
						l-11.3-7.9c-1.6-1.1-3.8-2.7-4.6-5.1c-0.8-2.3-0.1-4.8,0.4-6.4c2.9-10.5,6.6-20.8,10.9-30.8c0.3-0.8,1.2-1.1,2-0.8
						c0.8,0.3,1.1,1.2,0.8,2c-4.2,9.9-7.8,20.1-10.7,30.4c-0.5,1.7-0.9,3.3-0.4,4.7c0.5,1.4,1.9,2.5,3.5,3.6l12.2,8.6
						c0.6,0.4,0.8,1.1,0.5,1.7l-7,19c-0.4,1.1-0.9,2.4-0.7,3.5c0.1,1,0.8,2.1,1.5,3l41.1,60.7c0.5,0.7,0.3,1.6-0.4,2.1
						C2968.5,1430.5,2968.3,1430.5,2968,1430.5z"/>
				</g>
				<g>
					<path fill="#CEDCED" d="M2999.4,1430.7c-0.4,0-0.7-0.1-1-0.4c-0.6-0.6-0.7-1.5-0.1-2.1l57.1-62.6c1.7-1.8,3.2-3.6,3.2-5.6
						c0-1.5-0.9-3.1-1.6-4.4l-8.8-15.6c-0.4-0.7-0.2-1.5,0.4-1.9c6-4.4,11.7-9.4,16.8-14.9c1.2-1.3,2.4-2.6,2.7-4.1
						c0.5-1.9-0.2-4-1.1-6.1c-4.8-12.4-10.6-24.5-17.2-36c-0.4-0.7-0.2-1.6,0.6-2c0.7-0.4,1.6-0.2,2,0.6
						c6.7,11.6,12.5,23.9,17.4,36.4c1,2.5,1.9,5.2,1.2,7.9c-0.6,2.2-2,3.9-3.5,5.4c-4.9,5.3-10.4,10.1-16.1,14.5l8.2,14.4
						c0.9,1.6,2.1,3.6,2,6c0,3.3-2.4,5.9-4,7.6l-57.1,62.6C3000.2,1430.5,2999.8,1430.7,2999.4,1430.7z"/>
				</g>
				<path fill="#FFFFFF" d="M2866.7,1317.7c-31.1,19-48.7,53.5-63.6,86.8c-19.3,43.2-36.7,87.3-53,132.3
					c18.8,14.8,35.4,32.5,48.8,52.3c31-45.9,61.9-91.8,90.5-135.3c2.8-23.2,4.4-46.6,2.1-69.8
					C2889.2,1360.7,2882.8,1337.6,2866.7,1317.7z"/>
				<path fill="#FFFFFF" d="M2750.6,1537.4c-6.6,17.5-12,36.2-9.7,54.8c2.3,18.6,14,37.1,32,42.2c12.3,3.5,25.8,0.4,36.9-6
					c11.1-6.4,20.1-15.9,28.3-25.7c25.4-30.2,45.1-65.1,56.6-102c-10.3-19.6-20.7-39.2-32.8-56.8c-29.1,31-58.2,62-87.8,92
					c-3.9,1.1-7.9-1.1-11.9-1.9C2758.3,1533.1,2751.8,1534.2,2750.6,1537.4z"/>
				<path fill="#4F6A93" d="M2886.9,1409.6c-9.1-20.1-18.3-40.2-25.5-61.1c-0.9-2.6-1.8-5.3-1.3-8s2.7-5.3,5.4-5.1
					c3.3,0.2,5.1,3.9,6.2,7c8.2,23,17.8,45.5,28.8,67.4C2895.8,1409.4,2891,1409,2886.9,1409.6z"/>
				<g>
					<path fill="#6E4931" d="M3029.5,1075.5c-8.4-15.8-28.3-21.4-46.2-21.9c-19.8-0.6-39.8,3.2-57.3,12.4
						c-17.5,9.2-32.3,24-40.2,42.1c-8.1,18.8-8.6,39.9-8,60.3c1,33.1,4.3,66,6.1,98.3c32.3,6.4,66.4,3.6,95.6-7.4
						c19.8-3.1,39.9-4.1,59.6-7.4c6.9-1.2,14.3-2.9,18.3-7.3c11.9-38.8,13.8-80.7,5.5-120.4c-2.1-10.2-5-20.4-10.3-29.3
						C3047.4,1086,3039.5,1078.2,3029.5,1075.5z"/>
					<path fill="#F8BBBA" d="M2893.4,1158.1c7.1,28.5,5.9,61.2,25.4,83.2c15.2,17.2,34.5,24.5,55.8,16.2
						c18.3-7.1,33.8-20.4,47.1-48.7c6.6-2.8,15.5-8.6,18.3-15.2s3.5-14,2.9-21.2c-0.4-4.7-2-10.2-6.5-11.7c-3-1-6.5,0.4-8.7,2.6
						c-2.2,2.3-3.5,5.3-4.5,8.4c-2.4,7.3-3.6,15-4.7,25.1c-4.9-6.9-8-15.1-10.2-23.2c-30.6-12.2-56.6-35.7-74.9-63.8
						c-4.9,11.3-11.8,21.7-18.5,32c-2.7,4.1-5.4,8.3-9,11.6C2902.3,1156.7,2897.6,1159.1,2893.4,1158.1z"/>
					<path fill="#F8BBBA" d="M3022.5,1200c5.6,22.5,11.2,45,16.6,66.6c-3.9,15-11.9,29.3-24.1,38.9s-28.8,14.1-43.8,10
						s-27.5-17.5-29.6-33.3c2.3-11.2,4.6-22.5,6.2-34.6C2974.4,1233.5,3000.1,1218,3022.5,1200z"/>
					<g>
						<path fill="#F18E8B" d="M2956.1,1262.3c-6,0-11.9-1-17.3-3.1c-0.8-0.3-1.2-1.2-0.9-1.9c0.3-0.8,1.2-1.2,1.9-0.9
							c14.3,5.6,32.4,3.1,47.2-6.5c12.6-8.2,23.1-21,31.4-38.2c0.4-0.7,1.3-1.1,2-0.7c0.7,0.4,1.1,1.3,0.7,2
							c-8.5,17.7-19.4,31-32.4,39.4C2978.7,1258.9,2967.1,1262.3,2956.1,1262.3z"/>
					</g>
					<g>
						<path fill="#F18E8B" d="M2940.3,1230c-1.1,0-2.2,0-3.3-0.1c-0.8-0.1-1.4-0.8-1.4-1.6c0.1-0.8,0.8-1.4,1.6-1.4
							c15.3,1.1,30.9-6.4,39.5-19.1c0.5-0.7,1.4-0.9,2.1-0.4c0.7,0.5,0.9,1.4,0.4,2.1C2970.6,1222.2,2955.6,1230,2940.3,1230z"/>
					</g>
				</g>
				<g>
					<path fill="#CEDCED" d="M2990.9,1698.9c-0.8,0-1.4-0.6-1.5-1.4c-7.6-104-9.8-157.9-10.8-262.2c0-0.8,0.7-1.5,1.5-1.5
						c0,0,0,0,0,0c0.8,0,1.5,0.7,1.5,1.5c1,104.2,3.2,158.1,10.8,262c0.1,0.8-0.6,1.5-1.4,1.6
						C2991,1698.9,2991,1698.9,2990.9,1698.9z"/>
				</g>
				<g>
					<path fill="#F19D63" d="M3062.4,1671.3h-165.5c-6,0-11.3-4.2-12.5-10.2L2832,1409c-1.6-7.9,4.4-15.4,12.5-15.4H3010
						c6,0,11.3,4.2,12.5,10.2l52.4,252.1C3076.6,1663.8,3070.5,1671.3,3062.4,1671.3z"/>
					<path fill="#F8BBBA" d="M2968.3,1523.3c-14.7-8.4-32.9-10.9-45-22.7c-7.2-7-11.3-16.6-17.2-24.9c-6.5-5-12.9-10-19.4-15.1
						c-1.6-1.3-3.9-2.6-5.6-1.5c-1,0.6-1.5,1.8-1.7,2.9c-1.3,6.5,3,12.6,7.1,17.8c3,3.9,6.1,7.8,7.8,12.7c-17-6.2-34-12.4-51-18.6
						c-0.8-0.3-1.6-0.6-2.4-0.2c-1,0.5-1.2,1.7-1.3,2.8c-0.2,2.7-0.4,5.4,0.3,8c0.7,2.6,2.3,5.1,5,6.6c-3.7,6.5-2,14.6-0.2,21.8
						c3.5,13.7,2.5,10.9,6,24.7c0.3,1.2,4,11.3,4.8,12.2c1.1,1.2,12.2,5.5,13.7,5.8c17.9,3.5,28.1,8.2,46.3,6.5
						c2.3-0.2,4.7-0.5,7-0.2c2.9,0.3,5.5,1.5,8.2,2.6c10.2,4.4,20.4,8.8,30.5,13.2c1.2,0.5,2.5,1.1,3.8,0.9c3.2-0.4,4.5-4.3,5.1-7.5
						c1.4-7.8,2.8-15.7,4.1-23.5C2975.7,1539.7,2977,1528.3,2968.3,1523.3z"/>
					<path fill="#FFFFFF" d="M3125.4,1290.1c19.7,8.6,35.9,24.1,48.6,41.5c12.7,17.4,22.2,36.9,30.6,54.3
						c14.7,34,27.4,68.9,38.1,104.4c6.9,22.9,12.9,46.3,12.9,70.2c0,23.9-6.6,48.5-22.4,66.4c-15.8,17.9-41.8,27.7-67.5,22.2
						c-72.7-11.1-144-31.3-212.8-60.6c-0.4-24.8,2.9-49.7,7.6-74.2c61.5,11.8,123.1,23.5,181.4,33.9c-13.6-31.8-27.4-63.5-42.1-93.3
						c-2.1-27.8-3.5-55.8-0.4-83.6C3102.4,1343.5,3110.2,1315.9,3125.4,1290.1z"/>
					<g>
						<path fill="#CEDCED" d="M3189.7,1560.7c-0.1,0-0.2,0-0.3,0c-75.8-16.5-153-31.7-229.4-45.3c-0.8-0.1-1.4-0.9-1.2-1.7
							c0.1-0.8,0.9-1.4,1.7-1.2c76.4,13.6,153.6,28.8,229.5,45.3c0.8,0.2,1.3,1,1.1,1.8C3191,1560.2,3190.4,1560.7,3189.7,1560.7z"
							/>
					</g>
					<g>
						<path fill="#CEDCED" d="M3185.2,1651.8c0,0-0.1,0-0.1,0c-81-6.7-159.2-28.2-232.3-63.9c-0.7-0.4-1.1-1.3-0.7-2s1.3-1.1,2-0.7
							c72.7,35.5,150.5,56.9,231.2,63.6c0.8,0.1,1.4,0.8,1.4,1.6C3186.6,1651.2,3186,1651.8,3185.2,1651.8z"/>
					</g>
					<g>
						<path fill="#CEDCED" d="M3141.8,1549.6c-0.6,0-1.1-0.3-1.4-0.9l-42.1-93.3c-0.3-0.8,0-1.6,0.7-2c0.8-0.3,1.6,0,2,0.7
							l42.1,93.3c0.3,0.8,0,1.6-0.7,2C3142.2,1549.5,3142,1549.6,3141.8,1549.6z"/>
					</g>
					<g>
						<path fill="#CEDCED" d="M3110.5,1480.3c-0.2,0-0.5-0.1-0.7-0.2l-16.1-8.5c-0.7-0.4-1-1.3-0.6-2c0.4-0.7,1.3-1,2-0.6l16.1,8.5
							c0.7,0.4,1,1.3,0.6,2C3111.6,1480,3111.1,1480.3,3110.5,1480.3z"/>
					</g>
				</g>
				<g>
					<path fill="#CEDCED" d="M2774.2,1537.4c-0.4,0-0.7-0.1-1-0.4c-0.6-0.6-0.6-1.5,0-2.1l65.3-68c0.6-0.6,1.5-0.6,2.1,0
						c0.6,0.6,0.6,1.5,0,2.1l-65.3,68C2775,1537.2,2774.6,1537.4,2774.2,1537.4z"/>
				</g>
			</g>
			<circle fill="#FE7288" cx="2462.6" cy="1183.1" r="13.9"/>
			<circle fill="#FDE5A7" cx="2503.4" cy="1183.1" r="13.9"/>
			<circle fill="#80D6D0" cx="2544.3" cy="1183.1" r="13.9"/>
		</g>
		<g>
			<path fill="#FE7288" d="M2332,1277.2l-43.2-35.2h-474.2c-20,0-36.2-16.2-36.2-36.2v-177.4c0-20,16.2-36.2,36.2-36.2h503.1
				c20,0,36.2,16.2,36.2,36.2v238.3C2353.9,1278.1,2340.8,1284.3,2332,1277.2z"/>
			<path fill="#FFFFFF" d="M2303.1,1051.4h-473.7c-3.7,0-6.7,3-6.7,6.7v20.5c0,3.7,3,6.7,6.7,6.7h473.7c3.7,0,6.7-3,6.7-6.7V1058
				C2309.7,1054.3,2306.7,1051.4,2303.1,1051.4z"/>
			<path fill="#FFFFFF" d="M2303.1,1138.9h-473.7c-3.7,0-6.7,3-6.7,6.7v20.5c0,3.7,3,6.7,6.7,6.7h473.7c3.7,0,6.7-3,6.7-6.7v-20.5
				C2309.7,1141.9,2306.7,1138.9,2303.1,1138.9z"/>
		</g>
		<g>
			<path fill="#80D6D0" d="M2548.5,1009.6V807c0-11.1,9-20.1,20.1-20.1h202.6c11.1,0,20.1,9,20.1,20.1v202.6
				c0,11.1-9,20.1-20.1,20.1h-202.6C2557.5,1029.7,2548.5,1020.7,2548.5,1009.6z"/>
			<path fill="#FFFFFF" d="M2698.9,854.3l-29-5.8l-29,5.8c-27.2,6.7-29.1,77.1-28.4,112.1c0.2,10.8,9,19.5,19.9,19.5h37.6h37.6
				c10.8,0,19.7-8.7,19.9-19.5C2728.1,931.4,2726.1,861,2698.9,854.3z"/>
			<rect x="2640.9" y="830.7" fill="#4AA3E9" width="58" height="23.6"/>
			<polygon fill="#FE7288" points="2700.9,915.2 2678.7,915.2 2678.7,893.1 2661.1,893.1 2661.1,915.2 2638.9,915.2 2638.9,932.9 
				2661.1,932.9 2661.1,955.1 2678.7,955.1 2678.7,932.9 2700.9,932.9 			"/>
		</g>
		<g>
			<path fill="#4AA3E9" d="M2934.7,1987v-202.6c0-11.1,9-20.1,20.1-20.1h202.6c11.1,0,20.1,9,20.1,20.1V1987
				c0,11.1-9,20.1-20.1,20.1h-202.6C2943.7,2007.1,2934.7,1998.1,2934.7,1987z"/>
			<g>
				<path fill="#FDE5A7" d="M3111,1876.7c-1.9,0-3.7-1.1-4.5-2.9l-20.1-42.5c-1.2-2.5-0.1-5.5,2.4-6.6c2.5-1.2,5.5-0.1,6.6,2.4
					l20.1,42.5c1.2,2.5,0.1,5.5-2.4,6.6C3112.5,1876.6,3111.7,1876.7,3111,1876.7z"/>
			</g>
			<g>
				<path fill="#FDE5A7" d="M3083.4,1892.3c-2.1,0-4-1.3-4.7-3.3l-16.6-47.3c-0.9-2.6,0.5-5.4,3.1-6.4c2.6-0.9,5.4,0.5,6.4,3.1
					l16.6,47.3c0.9,2.6-0.5,5.4-3.1,6.4C3084.5,1892.3,3084,1892.3,3083.4,1892.3z"/>
			</g>
			<g>
				<path fill="#FDE5A7" d="M3059.7,1906.6c-0.4,0-0.9-0.1-1.3-0.2l-46.8-12.9c-2.7-0.7-4.2-3.5-3.5-6.1c0.7-2.7,3.5-4.2,6.1-3.5
					l46.8,12.9c2.7,0.7,4.2,3.5,3.5,6.1C3063.8,1905.1,3061.8,1906.6,3059.7,1906.6z"/>
			</g>
			<g>
				<path fill="#FDE5A7" d="M3047.9,1933.3c-0.6,0-1.2-0.1-1.8-0.3l-49.9-19.2c-2.6-1-3.9-3.9-2.9-6.4c1-2.6,3.9-3.9,6.4-2.9
					l49.9,19.2c2.6,1,3.9,3.9,2.9,6.4C3051.8,1932,3049.9,1933.3,3047.9,1933.3z"/>
			</g>
			<g>
				<path fill="#FFFFFF" d="M2999.5,1964c-2,0-3.9-1.2-4.7-3.2c-0.8-2.1-18.3-50.6,15-76c18.4-14,34.5-9.6,48.8-5.8
					c12.1,3.3,23.5,6.3,37.2-0.1c28.4-13.3,12.3-64.3,12.1-64.8c-0.8-2.6,0.6-5.4,3.2-6.3c2.6-0.8,5.4,0.6,6.3,3.2
					c0.8,2.4,19,59.9-17.4,77c-17,8-31.3,4.1-44,0.7c-13.8-3.7-25.7-6.9-40.1,4.1c-27.5,20.9-11.9,64.2-11.7,64.6
					c1,2.6-0.4,5.5-2.9,6.4C3000.6,1963.9,3000,1964,2999.5,1964z"/>
			</g>
			<g>
				<path fill="#FFFFFF" d="M3013.3,1947c-20.3,0-37.9-9-39.1-9.6c-2.4-1.3-3.4-4.3-2.1-6.7c1.3-2.4,4.3-3.4,6.7-2.1
					c0.4,0.2,41.5,20.9,65.6-3.8c12.7-13,11-25.2,9-39.3c-1.8-13-3.9-27.7,6-43.6c21.4-34,76.2-9,78.5-7.9c2.5,1.2,3.6,4.1,2.4,6.6
					c-1.2,2.5-4.1,3.6-6.6,2.4c-0.7-0.3-49.2-22.4-65.8,4.2c-8,12.8-6.3,24.5-4.6,36.9c2.1,14.6,4.4,31.2-11.7,47.7
					C3040.1,1943.4,3026.2,1947,3013.3,1947z"/>
			</g>
		</g>
		<g>
			<path fill="#FE7288" d="M3075.1,1027.9h-204.2c-10.2,0-18.4-8.3-18.4-18.4V805.3c0-10.2,8.3-18.4,18.4-18.4h204.2
				c10.2,0,18.4,8.3,18.4,18.4v204.2C3093.5,1019.7,3085.2,1027.9,3075.1,1027.9z"/>
			<g>
				<path fill="#FFFFFF" d="M2927,1002c-0.1,0-0.3,0-0.4,0c-2.4-0.2-4.3-2.1-4.5-4.5l-12.9-148.3l-15.3,59.5
					c-0.6,2.2-2.6,3.7-4.8,3.7h-17.4c-2.8,0-5-2.2-5-5s2.2-5,5-5h13.6l21.6-84.1c0.6-2.4,2.8-3.9,5.2-3.7c2.4,0.2,4.3,2.1,4.6,4.5
					l12.9,148.7l27.6-105.4c0.6-2.2,2.6-3.7,4.8-3.7c0,0,0,0,0,0c2.3,0,4.3,1.6,4.8,3.8l10.2,40h33.5l19.5-67.8
					c0.7-2.3,2.9-3.8,5.2-3.6c2.4,0.2,4.3,2.1,4.5,4.5l10.7,108.8l6.2-37.7c0.4-2.4,2.5-4.2,4.9-4.2h15.3c2.8,0,5,2.2,5,5
					s-2.2,5-5,5h-11l-11.7,71c-0.4,2.5-2.5,4.3-5.1,4.2c-2.5-0.1-4.6-2-4.8-4.5l-11.8-120.6l-13.3,46.3c-0.6,2.1-2.6,3.6-4.8,3.6
					H2973c-2.3,0-4.3-1.5-4.8-3.8l-6.4-25l-30,114.6C2931.2,1000.5,2929.2,1002,2927,1002z"/>
			</g>
		</g>
	</g>
	<g>
		<g>
			<path fill="#4AA3E9" d="M1723,1576.3l43.2-35.2h474.2c20,0,36.2-16.2,36.2-36.2v-177.4c0-20-16.2-36.2-36.2-36.2h-503.1
				c-20,0-36.2,16.2-36.2,36.2v238.3C1701.1,1577.2,1714.2,1583.4,1723,1576.3z"/>
			<path fill="#FFFFFF" d="M1752,1350.5h473.7c3.7,0,6.7,3,6.7,6.7v20.5c0,3.7-3,6.7-6.7,6.7H1752c-3.7,0-6.7-3-6.7-6.7v-20.5
				C1745.3,1353.5,1748.3,1350.5,1752,1350.5z"/>
			<path fill="#FFFFFF" d="M1752,1438h473.7c3.7,0,6.7,3,6.7,6.7v20.5c0,3.7-3,6.7-6.7,6.7H1752c-3.7,0-6.7-3-6.7-6.7v-20.5
				C1745.3,1441,1748.3,1438,1752,1438z"/>
		</g>
		<g>
			<polygon fill="#4F6A93" points="1601.2,2758.2 1592.1,2688.8 1676.7,2688.8 1669.8,2758.2 			"/>
			<polygon fill="#4F6A93" points="1098.5,2758.2 1089.4,2688.8 1174,2688.8 1167.1,2758.2 			"/>
			<polygon fill="#4F6A93" points="1866.8,2758.2 1857.8,2688.8 1942.4,2688.8 1935.4,2758.2 			"/>
			<polygon fill="#4F6A93" points="1364.1,2758.2 1355.1,2688.8 1439.7,2688.8 1432.8,2758.2 			"/>
			<path fill="#F19D63" d="M1943,2688.8h-856.9c-33.9,0-62.6-25.4-66.9-59.2c-10.4-82.2-24.5-243.8-10-444.4
				c21.2-293.5,35.4-470.9,367.8-462.8s297.6,485.7,297.6,485.7s355.1-67.6,353,85.4c0,0,0.9,90.6-44.2,89.8
				C1983.5,2383.3,2065.7,2658.5,1943,2688.8z"/>
			<path fill="#E28059" d="M1452.6,1748.1c0,0-213.2-26.6-268.5,87.1c-55.3,113.7-47.5,327.5-47.5,327.5l171.3,40.1l251-95
				L1452.6,1748.1z"/>
			<g>
				<g>
					<path fill="#F8BBBA" d="M2059.6,1779.3c11.1-5.7,23.7-8.6,34-15.5c9.3-6.3,16.4-15.8,20.2-26.1c-7.7-15.1-18.1-28.8-30.6-40.3
						c-14.2,17.7-28.3,35.4-42.5,53.1c-1.1,1.4-2.2,2.8-2.4,4.6c-0.2,1.7,0.6,3.3,1.4,4.8
						C2043.9,1767.7,2049.7,1774.5,2059.6,1779.3z"/>
					<path fill="#4F6A93" d="M2082.3,1747.6v-62.3c0-4.7,3.8-8.5,8.5-8.5H2227c4.7,0,8.5,3.8,8.5,8.5v62.3c0,4.7-3.8,8.5-8.5,8.5
						h-136.2C2086.1,1756.2,2082.3,1752.3,2082.3,1747.6z"/>
					<path fill="#F8BBBA" d="M2027.7,1751.8c14.5-19,22.1-42.8,37.7-60.9c4-4.7,8.5-8.9,13-13.1c6-5.7,12.1-11.3,18.1-17
						c1.6-1.5,3.8-3.2,5.8-2.3c2.3,0.9,2.5,4.1,2.1,6.5c-2,12.3-9.3,23.7-19.4,31.6c3.4,17-2.2,35.6-15.4,46.1
						c-5.9,8.4-12.6,16.3-19.9,23.6c-0.6,0.6-1.2,1.1-1.9,1.3c-1.3,0.3-2.6-0.5-3.6-1.3C2038.6,1761.9,2033.1,1757.5,2027.7,1751.8z
						"/>
					<g>
						<path fill="#F18E8B" d="M2064.7,1749.6c-0.4,0-0.8-0.2-1.1-0.5c-0.5-0.6-0.5-1.6,0.2-2.1c5-4.4,10.3-8.9,13.8-14.6
							c5.7-9.3,6.5-21.2,7.2-30.8c0.1-0.8,0.8-1.4,1.6-1.4c0.8,0.1,1.4,0.8,1.4,1.6c-0.7,9.9-1.5,22.3-7.6,32.2
							c-3.8,6.1-9.1,10.8-14.4,15.3C2065.4,1749.5,2065.1,1749.6,2064.7,1749.6z"/>
					</g>
					<path fill="#3089C6" d="M2006.6,1759.7c4.8-5,10.2-9.6,16-13.5c1.8-1.3,3.9-2.5,6.1-2.4c2.9,0.1,5.3,2.4,7.3,4.6
						c8.7,9.4,17.3,18.8,26,28.2c0.9,0.9,1.8,1.9,2.2,3.1c1.4,4-2.5,7.7-6,10.1c-2.5,1.7-5,3.4-7.5,5.2c-0.6,0.4-1.3,0.9-2,1
						c-1.8,0.3-3.4-1.1-4.5-2.5c-3.1-3.6-5.6-7.6-8.6-11.4C2028.4,1773.3,2019.5,1766,2006.6,1759.7z"/>
					<path fill="#4AA3E9" d="M1634.4,1826.6c47.3,38.3,99.6,70.5,155,95.6c15.5,7,31.5,13.6,48.5,14.6c58.1-2.1,109.8-33.3,154.8-68
						c25-19.3,50-41.3,61-71c0.8-2.2,1.6-4.6,1-6.9c-0.6-2.3-2.5-4.1-4.2-5.8c-10.2-9.4-20.4-18.9-30.5-28.3
						c-10.5-7.9-26.4-2.5-39.3,3.3c-37.4,16.6-74.8,33.3-112.2,49.9c-37.5-26.9-75.1-53-112.7-79.1c-23.5-25.7-52.1-47.4-85.5-65.9
						C1657.3,1716.7,1641.6,1769.9,1634.4,1826.6z"/>
					<g>
						<path fill="#3089C6" d="M1840.9,1826.8c-0.5,0-1.1-0.3-1.3-0.8c-0.4-0.7-0.1-1.6,0.6-2l30.3-15.9c0.7-0.4,1.6-0.1,2,0.6
							c0.4,0.7,0.1,1.6-0.6,2l-30.3,15.9C1841.3,1826.8,1841.1,1826.8,1840.9,1826.8z"/>
					</g>
				</g>
				<path fill="#4AA3E9" d="M1486.8,1632.4c-19.9,8.2-39.7,16.4-59.8,28c-15.5,38-33.5,75-52.1,111.7
					c-46.4,129.5-75.5,265.3-85.4,402.5c50,7.4,100.3,12.8,150.7,16.7c58.6,4.6,117.4,7.3,172.5,14.1
					c24.7-103.2,26.6-210.3,27.7-316.6c14-58.9,23.9-118.8,27.9-178.4c2.2-15.3,3-30.8,1.9-45.5c-11.8-7.1-23.9-13.6-36.2-19.8
					c-6.3-3.1-12.7-6.1-19.6-7.5c-10-2-20.4-0.5-30.6,0.5c-17.5,1.8-35.4,2.1-52.5-1.9C1517,1632.7,1502.4,1625.9,1486.8,1632.4z"/>
				<path fill="#F8BBBA" d="M1986.3,2605c28.7,26.8,59,56.5,65.7,95.2c1.4,7.8,1.9,16.4,7.2,22.3c6.2,7.1,16.7,8,25.6,8.4
					c49.5-23,98.5-47.1,143.8-69.8c1.2-10.2-6-20-15.2-24.7c-9.1-4.7-19.8-5.4-30.1-5.4c-24,0-47.9,3.2-71.9,5.9
					c-23.4-28.6-47.7-56.5-72.7-83.7C2022.2,2570.7,2005.9,2588,1986.3,2605z"/>
				<path fill="#4AA3E9" d="M2187.6,2669.7c-3.6-13-5.2-26.5-4.9-40c0.1-2.5,0.3-5.3,2.1-7.1c1.8-1.7,4.5-1.9,6.9-1.9
					c13.9-0.4,28-0.8,41.3,3.4c13.2,4.1,25.6,13.7,29.3,27.1c1.6,5.7,1.3,12.3-2.5,16.8c-2.3,2.6-5.5,4.2-8.6,5.7
					c-53.1,25.7-106.3,51.3-159.4,77c-11.8,5.7-28,10.6-36.4,0.6c5.4-8.6,15-13.6,24.1-18.1c37.7-18.8,75.5-37.5,113.2-56.3
					C2192.9,2674.3,2191.4,2671.7,2187.6,2669.7z"/>
				<path fill="#F8BBBA" d="M1899.1,2632.4c3.4,21.1,0.1,43.2-9.3,62.5c-2.9,6-6.5,11.8-8.1,18.3s-0.9,14,3.8,18.7
					c2.3,2.3,5.4,3.8,8.5,4.9c18.7,7.1,39.4,5.7,59.4,4.3c19-1.4,38-2.8,57-4.2c4.2-0.3,8.7-0.7,12.1-3.1c7-5,7.1-16.1,13.9-21.4
					c-17.9-16.3-44.1-19.1-65.4-30.6c-2-1.1-4-2.3-5-4.3c-0.8-1.5-0.8-3.3-0.9-4.9c-0.5-14.8-0.9-29.6-1.4-44.4
					C1942.5,2632.6,1920.7,2635.2,1899.1,2632.4z"/>
				<path fill="#4AA3E9" d="M1874.9,2744.7c-0.3,5.1,3.7,9.6,8.3,11.6c4.7,2,9.9,2,15,1.9c59.6-0.4,119.1-0.8,178.7-1.2
					c1.9,0,3.9,0,5.7-0.6c3.6-1.1,6.3-4.2,7.9-7.7c4.1-9,1.1-20-5.2-27.7c-6.3-7.7-15.3-12.5-24.3-16.5c-8.8-3.9-17.8-7.2-27-9.8
					c-4-1.1-8.3-2.2-12.2-0.6c-2.9,1.2-5.1,3.7-7,6.3c-8.6,11.3-14.4,22.5-18.3,36.5c-24.4,2-49.4,5.7-73.8,4.3
					c-14.7-0.8-29.6-2.9-44.1-0.1C1876.3,2741.6,1873.4,2743.9,1874.9,2744.7z"/>
				<path fill="#3F8A87" d="M1500.7,1576.5c-8.6,0.3-17.7,0.7-24.8,5.6c-7.1,4.8-10.8,15.6-5.2,22.3c-5.6,4-6.7,12.9-2.4,18.1
					c-5.2,3.6-6.5,11.1-4.4,17.1c2.1,6,6.9,10.6,11.9,14.4c22.6,16.7,52.2,19.6,80.1,21.9c14,1.2,28.7,2.2,41.6-3.4
					c7.8-3.4,14.9-10,15.4-18.1c7-11.2,10-24.8,8.4-37.8c-0.5-3.9-1.4-7.9-3.7-11.2c-5.9-8.8-18.2-9.8-28.7-10.6
					C1560,1592.3,1531.6,1584.2,1500.7,1576.5z"/>
				<path fill="#3F8A87" d="M1479.5,1643.5c11.1,46.7,10.1,95.4,9.1,143.5c-1,43.7-2.1,88.2-16.2,129.5
					c-5.7,16.6-13.5,32.9-14.3,50.3c-0.1,1.4-0.1,2.9,0.6,4.1c1.4,2.5,5.2,2.6,7.8,1.3c2.6-1.3,4.6-3.6,7-5.1
					c5.7-3.5,13.2-2.3,19.4,0.3s11.8,6.6,18.2,8.6c10.7,3.3,22.3,0.9,33-2.2c2.1-0.6,4.4-1.3,5.9-2.9c1.6-1.7,2.3-4,2.8-6.3
					c4.6-19.7,4.3-40.2,3.9-60.5c-0.6-33-1.3-66-2-99.1c-1.1-47.5-2.6-96.1-19.8-140.3c-1.6-4.1-3.6-8.4-7.3-10.7
					c-2.5-1.5-5.6-1.8-8.5-2.2C1507.4,1650.6,1495.6,1649.3,1479.5,1643.5z"/>
				<g>
					<path fill="#296D68" d="M1527.2,1639.3c-0.1,0-0.3,0-0.4,0c-19.5-5.1-37.8-14.9-52.8-28.5c-0.6-0.6-0.7-1.5-0.1-2.1
						c0.6-0.6,1.5-0.7,2.1-0.1c14.6,13.2,32.5,22.8,51.5,27.8c0.8,0.2,1.3,1,1.1,1.8C1528.4,1638.9,1527.8,1639.3,1527.2,1639.3z"/>
				</g>
				<g>
					<path fill="#296D68" d="M1584.5,1658c-0.7,0-1.4-0.5-1.5-1.3c-0.1-0.8,0.4-1.6,1.3-1.7c7.2-1.1,14.3-2.9,21.1-5.6
						c0.8-0.3,1.6,0.1,1.9,0.8c0.3,0.8-0.1,1.6-0.8,1.9c-7,2.7-14.3,4.7-21.7,5.8C1584.7,1658,1584.6,1658,1584.5,1658z"/>
				</g>
				<g>
					<path fill="#296D68" d="M1572.1,1629.1c-5.3,0-10.6-0.4-15.9-1.3c-0.8-0.1-1.4-0.9-1.2-1.7c0.1-0.8,0.9-1.4,1.7-1.2
						c12.1,2,24.8,1.6,36.8-1.2c0.8-0.2,1.6,0.3,1.8,1.1c0.2,0.8-0.3,1.6-1.1,1.8C1587,1628.2,1579.6,1629.1,1572.1,1629.1z"/>
				</g>
				<g>
					<path fill="#3089C6" d="M1648.7,1847.8c-0.1,0-0.3,0-0.4-0.1c-0.8-0.2-1.2-1.1-1-1.9c11.8-40.1,18.3-81.7,19.3-123.6
						c0-0.8,0.7-1.5,1.5-1.5c0.8,0,1.5,0.7,1.5,1.5c-1,42.1-7.5,83.9-19.4,124.3C1650,1847.4,1649.4,1847.8,1648.7,1847.8z"/>
				</g>
				<path fill="#4F6A93" d="M1558.5,2353.9c63.4,0.2,126.8-3.8,188-11.8c81.5,92.2,163,184.4,241.2,276.7
					c29.4-10.7,55.3-30.8,69.3-66.5c-48.4-79.9-97.6-159.4-147.7-238.2c-18.2-28.7-36.7-57.4-58.8-83.2
					c-12.7-14.8-26.8-28.8-43.7-38.4c-18.1-10.2-38.6-15.1-58.9-19.3c-64.9-13.7-221.4-13.4-289.8-23
					C1437.1,2219.8,1531.4,2287,1558.5,2353.9z"/>
				<path fill="#4F6A93" d="M1752.4,2182.7c47,5.5,93.3,16,138.1,31.3c23.4,8,46.7,17.4,66.7,31.8s36.8,34.5,43.5,58.4
					c8,28.6,0.8,58.8-4.4,88c-5.9,32.8-9.5,65.9-11.1,102.9c-4.4,46.9-8.7,93.8-13.7,141.3c-28,0.5-57.1,13-85,2.6
					c-13.1-82.5-18.2-166.3-14.7-249.5c0.1-13.4,0.2-26.8-1-40.1c-54.9-7.3-109.9-14.6-166.5-20.2c9.3-45,22.3-89.2,38.9-132
					C1745.9,2190.4,1748.9,2182.3,1752.4,2182.7z"/>
				<g>
					<path fill="#3B4C64" d="M2004.6,2470.1c-0.5,0-1-0.3-1.3-0.8c-42.6-76.5-90.6-151-142.8-221.4c-7.7-9.6-12.6-16-17.4-22.2
						c-17.1-20.4-38.3-34.8-62.9-42.5c-0.8-0.2-1.2-1.1-1-1.9c0.2-0.8,1.1-1.2,1.9-1c25.1,7.9,46.8,22.6,64.3,43.5
						c4.8,6.2,9.7,12.6,17.4,22.3c52.3,70.5,100.4,145.1,143,221.7c0.4,0.7,0.1,1.6-0.6,2C2005.1,2470,2004.8,2470.1,2004.6,2470.1z
						"/>
				</g>
				<g>
					<path fill="#3B4C64" d="M1988.8,2621c-0.4,0-0.8-0.2-1.1-0.5c-48.9-54.2-97.5-110-144.3-165.9c-0.5-0.6-0.4-1.6,0.2-2.1
						c0.6-0.5,1.6-0.4,2.1,0.2c46.9,55.9,95.4,111.7,144.3,165.8c0.6,0.6,0.5,1.6-0.1,2.1C1989.6,2620.9,1989.2,2621,1988.8,2621z"
						/>
				</g>
				<path fill="#1E3A45" d="M1634.8,1499c8.6-18.9,17.1-40,10.7-59.8c-4-12.5-13.8-22.7-25.2-29.2c-11.4-6.5-24.5-9.6-37.5-11.4
					c-19.9-2.6-40.4-2-59.5,4.2c-19.1,6.2-36.6,18.3-46.5,36.4c-20.8,5.5-33.6,28.4-32.7,49.8s13.1,41,28.1,56.4
					c7.3,7.5,15.8,14.4,26,16.7c10.2,2.3,22.3-1.3,27.1-10.6c2.6-5.1,2.9-11.3,6.5-15.7c2.4-3,6-4.7,9.6-6
					c16.2-5.8,33.8-5.4,50.8-8.1C1609.3,1519.3,1628.5,1512.7,1634.8,1499z"/>
				<path fill="#F8BBBA" d="M1643.2,1478.3c-2.7,39.1-12.7,77.6-29.4,113.1c-2.8,5.9-5.9,11.9-11,16c-4.6,3.6-10.4,5.3-16.2,6.2
					c-17.4,2.6-35.3-2-51.2-9.8c-15.8-7.8-29.9-18.6-43.9-29.4c0,0-1.8-1.7-2.1-1.8c-10.2-4.2-19.7-11.1-25-20.8s-5.7-22.4,0.6-31.5
					c2-2.9,4.7-5.4,8.1-6.7c5.2-1.9,11.2-0.3,15.7,3s7.7,8,9.5,13.3c1.1,6.5,3,12.8,5.6,18.9c0.4,1,1,2.1,2,2.4
					c1.2,0.4,2.5-0.5,3.2-1.5c2.2-2.8,2.4-6.7,2.5-10.3c0.2-8.6,0.5-17.2,2.1-24.3c7-4,11.4-11.5,13.5-19.2
					c2.1-7.8,2.1-15.9,4.5-22.5c4,3.9,8,7.7,12.1,11.6c5.3-4.4,9.2-10.5,10.8-17.2c2.7,4.5,5.5,9.1,8.2,13.6
					c1.1,1.8,2.4,3.7,4.5,3.9c2.1,0.2,3.8-1.5,5.1-3.1c3.3-3.7,6.6-7.4,9.8-11.2c4.3,4.6,8.5,9.2,12.8,13.7c0.8,0.9,1.8,1.9,3.1,1.9
					c1.3,0,2.4-1.1,3.3-2.1c3.6-4.1,7.2-8.3,10.8-12.4c2,3.8,4,7.7,6.1,11.5c0.8,1.5,1.9,3.2,3.6,3.1c1.3-0.1,2.2-1.1,3-2.1
					c2.4-2.9,4.7-5.8,7.1-8.8c1.9,2.8,3.2,6,3.8,9.3C1638.1,1482.9,1640,1480.4,1643.2,1478.3z"/>
				<path fill="#FE7288" d="M1644.4,1542.4c-2.1,2.3-4.2,3.8-6.6,5.8c-12.9,10.7-26.3,20.6-40.3,29.8c-3.3-0.7-6.5-1.2-9.8-1.7
					c0.3-0.3,0.5-0.5,0.8-0.8c16.6-15.3,26.4-24.3,44.8-37.4c1-0.7,4-3.3,10.4-4C1647.7,1534.7,1647.1,1539.5,1644.4,1542.4z"/>
				<path fill="#FFFFFF" d="M1553.9,1478.6c-0.4,8-0.8,15.9-1.2,23.9c0,1-0.1,2.1,0.5,2.9c1,1.4,3,1.3,4.7,1.2
					c23.7-2.7,47.6-3.3,71.4-1.9c1-7.6,1.8-15.3,2.3-23C1605.1,1482.5,1578.5,1473.5,1553.9,1478.6z"/>
				<path fill="#FFFFFF" d="M1628.9,1552.7c-1.5,1.6-2.9,2.6-4.6,4c-8.9,7.4-18.2,14.3-27.9,20.7c-2.2-0.5-4.5-0.9-6.8-1.2
					c0.2-0.2,0.4-0.4,0.5-0.5c11.5-10.6,18.2-16.9,31-25.9c0.7-0.5,2.8-2.3,7.2-2.8C1631.2,1547.4,1630.7,1550.7,1628.9,1552.7z"/>
				<g>
					<path fill="#F18E8B" d="M1600.3,1580.1c-0.1,0-0.2,0-0.3,0c-0.9-0.2-1.9-0.4-2.9-0.6c-3.2-0.7-6.5-1.2-9.7-1.7
						c-12.6-1.8-25.3-2-37.9-0.7c-0.8,0.1-1.6-0.5-1.6-1.3s0.5-1.6,1.3-1.6c12.8-1.3,25.8-1.1,38.6,0.8c3.3,0.5,6.6,1,9.9,1.7
						c1,0.2,1.9,0.4,2.9,0.6c0.8,0.2,1.3,1,1.1,1.8C1601.6,1579.6,1601,1580.1,1600.3,1580.1z"/>
				</g>
				<g>
					<path fill="#F8BBBA" d="M1667.4,1856.1c23.8-18.8,42.2-43.6,57.2-70c0.8-1.5,1.9-3.2,3.6-3.4c3-0.5,4.5,3.5,4.7,6.5
						c0.4,8.3-1.2,16.7-7.3,25.9c24.3-3.6,47.7-13.6,67.1-28.6c1.8-1.4,3.7-2.9,6-3.6s5-0.1,6.3,1.8c1.8,2.7,0,6.3-1.9,8.9
						c-6.8,9-15.7,16.4-28.8,23.7c14.6-4.1,28.5-10.4,41.2-18.6c1.9-1.2,3.8-2.5,6-2.8c2.2-0.3,4.8,0.6,5.6,2.6
						c0.5,1.3,0.3,2.8-0.3,4.2c-1.4,3.5-4.3,6.1-7.3,8.4c-9.3,7.2-19.9,12.7-34.4,19.8c10.9-4.4,21.8-8.8,32.7-13.2
						c2.3-0.9,5-1.8,6.9-0.3c1.7,1.3,1.8,4,0.8,5.8s-2.8,3.2-4.6,4.3c-12.2,8.1-25.7,14.1-40.8,19.8c7.8-1.7,15.7-3.4,23.5-5.1
						c2-0.4,5.1,0,4.9,2.1c-0.1,0.7-0.7,1.3-1.2,1.8c-5.7,5.1-13.1,7.7-20.4,10.2c-20.3,7-40.8,14-63.5,17.5
						c-11.1,4.3-21.9,9.2-34.7,14.3C1680.6,1879.2,1673.5,1869.3,1667.4,1856.1z"/>
					<g>
						<path fill="#F18E8B" d="M1768.2,1854C1768.2,1854,1768.2,1854,1768.2,1854c-0.8,0-1.5-0.7-1.5-1.5c0.1-11.7-1.8-23.2-5.8-34.1
							c-0.3-0.8,0.1-1.6,0.9-1.9c0.8-0.3,1.6,0.1,1.9,0.9c4.1,11.3,6.1,23.2,5.9,35.2C1769.7,1853.4,1769,1854,1768.2,1854z"/>
					</g>
					<path fill="#3089C6" d="M1655.8,1856.2c3.8-2.5,7.8-4.7,12-6.6c1.2-0.6,2.5-1.1,3.8-0.9c1.5,0.2,2.6,1.3,3.7,2.4
						c6.2,6.4,11.3,13.8,15.3,21.7c2.1,4.3,4,9.3,2.6,14c-1.7,6.1-8,9.5-13.7,12.2c-0.9,0.5-1.9,0.9-3,0.8c-1.7-0.2-2.8-1.7-3.7-3.1
						C1665.2,1884.9,1659.2,1871.9,1655.8,1856.2z"/>
					<path fill="#4AA3E9" d="M1427,1660.4c-31.5,15-64.8,35.5-79.1,67.4c-7.4,16.5-9.3,34.9-9.2,53c0.4,61,23.2,119.6,50.1,174.4
						c12.5,25.5,27.4,51.9,51.5,66.4c21.1,13.8,48.3,15.7,72.8,10c24.5-5.7,46.9-18.2,68.2-31.7c41.3-26.2,81.7-58.7,99.7-103.3
						c-7.8-15-15.6-30-22.3-42.5c-26.4-8.1-54.3,3.4-79.5,14.7c-25.8,11.6-51.7,23.2-76.4,36c-23.7-36.2-31.1-80.7-48.6-120.8
						C1455.1,1742.4,1446.5,1700,1427,1660.4z"/>
					<g>
						<path fill="#3089C6" d="M1460.3,1928.8c-0.5,0-1.1-0.3-1.3-0.8c-0.4-0.7-0.1-1.6,0.6-2c31.2-16.3,68.1-35.4,105.4-53.3
							c29.6-14.1,61.2-27.4,93-21.3c0.8,0.2,1.3,0.9,1.2,1.8c-0.2,0.8-0.9,1.3-1.8,1.2c-30.9-6-62,7.1-91.2,21
							c-37.3,17.8-74.2,36.9-105.3,53.2C1460.7,1928.8,1460.5,1928.8,1460.3,1928.8z"/>
					</g>
					<g>
						<path fill="#3089C6" d="M1501,1906.2c-0.6,0-1.2-0.4-1.4-0.9l-47.3-120.5c-0.3-0.8,0.1-1.6,0.8-1.9c0.8-0.3,1.6,0.1,1.9,0.8
							l47.3,120.5c0.3,0.8-0.1,1.6-0.8,1.9C1501.4,1906.2,1501.2,1906.2,1501,1906.2z"/>
					</g>
					<g>
						<path fill="#3089C6" d="M1466.8,1816.9c0,0-0.1,0-0.1,0c-0.8-0.1-1.4-0.8-1.4-1.6l3.2-36.5c0.1-0.8,0.8-1.4,1.6-1.4
							c0.8,0.1,1.4,0.8,1.4,1.6l-3.2,36.5C1468.2,1816.3,1467.5,1816.9,1466.8,1816.9z"/>
					</g>
					<g>
						<path fill="#3089C6" d="M1482.6,2039.1c-0.3,0-0.5,0-0.8,0c-23.6-0.2-45-10.2-57.3-26.8c-46.6-60.4-76.6-132.4-86.7-208
							c-0.1-0.8,0.5-1.6,1.3-1.7c0.8-0.1,1.6,0.5,1.7,1.3c10.1,75.1,39.9,146.6,86.2,206.6c11.8,15.8,32.3,25.4,55,25.6
							c22.7,0.2,44.1-8.1,60.3-15.4c32.2-14.5,62.1-33.7,88.6-57.1c26.1-23,41.5-44.3,48.3-67.1c0.2-0.8,1.1-1.2,1.9-1
							c0.8,0.2,1.2,1.1,1,1.9c-7,23.3-22.6,45-49.2,68.4c-26.8,23.6-56.8,43-89.3,57.6C1527.2,2030.7,1505.6,2039.1,1482.6,2039.1z"
							/>
					</g>
				</g>
			</g>
			<path fill="#F19D63" d="M1136.6,2165.1c0,0,319.5-39.1,458.6,10s99.2,153.7,63.2,190.4l-4.6,323.3h-501.5
				C1152.4,2688.8,1125.6,2362.7,1136.6,2165.1z"/>
			<g>
				<path fill="#E28059" d="M1361.1,2372.9c-84.9,0-194.3-4.4-326-18.7c-0.8-0.1-1.4-0.8-1.3-1.6c0.1-0.8,0.8-1.4,1.6-1.3
					c200.8,21.8,349.5,20.6,438.9,15.8c96.8-5.2,146.8-15.7,147.3-15.8c0.8-0.2,1.6,0.3,1.8,1.2c0.2,0.8-0.3,1.6-1.2,1.8
					c-0.5,0.1-50.6,10.6-147.7,15.9C1443.7,2371.7,1405.8,2372.9,1361.1,2372.9z"/>
			</g>
			<g>
				<path fill="#E28059" d="M1579.9,2670.4c-0.8,0-1.5-0.7-1.5-1.5v-268.8c0-0.8,0.7-1.5,1.5-1.5s1.5,0.7,1.5,1.5v268.8
					C1581.4,2669.7,1580.7,2670.4,1579.9,2670.4z"/>
			</g>
			<ellipse fill="#E28059" cx="1649.6" cy="2279.4" rx="15.1" ry="24"/>
		</g>
	</g>
	<g>
		<circle fill="#CEDCED" cx="2276.6" cy="693.3" r="199.8"/>
		<circle fill="#FFFFFF" cx="2276.6" cy="693.3" r="180.1"/>
		<circle fill="#4F6A93" cx="2276.6" cy="693.3" r="11.5"/>
		<g>
			<path fill="#4F6A93" d="M2353.9,698.3h-77.3c-1.4,0-2.8-0.6-3.8-1.7l-99.3-113.8c-1.8-2.1-1.6-5.2,0.5-7c2.1-1.8,5.2-1.6,7,0.5
				l97.8,112.1h75.1c2.8,0,5,2.2,5,5S2356.7,698.3,2353.9,698.3z"/>
		</g>
	</g>
	<g>
		<path fill="#FDE5A7" d="M2775.7,1409.2h-153.6c-3.1,0-5.7-2.6-5.7-5.7v-224.3c0-3.1,2.6-5.7,5.7-5.7h153.6c3.1,0,5.7,2.6,5.7,5.7
			v224.3C2781.4,1406.7,2778.9,1409.2,2775.7,1409.2z"/>
		<g>
			<path fill="#FFFFFF" d="M2652.1,1244c-1.4,0-2.8-0.6-3.7-1.7l-17.7-19.6c-1.8-2-1.7-5.2,0.4-7c2-1.8,5.2-1.7,7,0.4l13.9,15.4
				l25-29.4c1.8-2.1,4.9-2.4,7-0.6c2.1,1.8,2.4,4.9,0.6,7l-28.7,33.8C2655,1243.3,2653.7,1244,2652.1,1244
				C2652.2,1244,2652.2,1244,2652.1,1244z"/>
		</g>
		<g>
			<path fill="#F19D63" d="M2763.4,1227.1h-66c-2.8,0-5-2.2-5-5c0-2.8,2.2-5,5-5h66c2.8,0,5,2.2,5,5
				C2768.3,1224.9,2766.1,1227.1,2763.4,1227.1z"/>
		</g>
		<g>
			<path fill="#FFFFFF" d="M2652.1,1313.3c-1.4,0-2.8-0.6-3.7-1.7l-17.7-19.7c-1.8-2-1.7-5.2,0.4-7c2-1.8,5.2-1.7,7,0.4l13.9,15.4
				l25-29.4c1.8-2.1,4.9-2.4,7-0.6c2.1,1.8,2.4,4.9,0.6,7l-28.7,33.8C2655,1312.6,2653.7,1313.2,2652.1,1313.3
				C2652.2,1313.3,2652.2,1313.3,2652.1,1313.3z"/>
		</g>
		<g>
			<path fill="#F19D63" d="M2763.4,1296.4h-66c-2.8,0-5-2.2-5-5c0-2.8,2.2-5,5-5h66c2.8,0,5,2.2,5,5
				C2768.3,1294.1,2766.1,1296.4,2763.4,1296.4z"/>
		</g>
		<g>
			<path fill="#FFFFFF" d="M2652.1,1382.5c-1.4,0-2.8-0.6-3.7-1.7l-17.7-19.7c-1.8-2-1.7-5.2,0.4-7s5.2-1.7,7,0.4l13.9,15.4l25-29.4
				c1.8-2.1,4.9-2.4,7-0.6c2.1,1.8,2.4,4.9,0.6,7l-28.7,33.8C2655,1381.9,2653.7,1382.5,2652.1,1382.5
				C2652.2,1382.5,2652.2,1382.5,2652.1,1382.5z"/>
		</g>
		<g>
			<path fill="#F19D63" d="M2763.4,1365.6h-66c-2.8,0-5-2.2-5-5s2.2-5,5-5h66c2.8,0,5,2.2,5,5S2766.1,1365.6,2763.4,1365.6z"/>
		</g>
	</g>
	<g>
		<path fill="#3B4C64" d="M4335,2767.4H345c-2.8,0-5-2.2-5-5s2.2-5,5-5h3990c2.8,0,5,2.2,5,5S4337.8,2767.4,4335,2767.4z"/>
	</g>
</g>
</svg>
