<?xml version="1.0" encoding="utf-8"?>
<!-- Generator: Adobe Illustrator 25.3.1, SVG Export Plug-In . SVG Version: 6.00 Build 0)  -->
<svg version="1.1" id="Object" xmlns="http://www.w3.org/2000/svg" xmlns:xlink="http://www.w3.org/1999/xlink" x="0px" y="0px"
	 viewBox="0 0 4680 3120" enable-background="new 0 0 4680 3120" xml:space="preserve">
<g>
	<g>
		<g>
			<path fill="#3B4C64" d="M4305.4,2794.8H374.6c-3.2,0-5.7-2.6-5.7-5.7c0-3.2,2.6-5.7,5.7-5.7h3930.8c3.2,0,5.7,2.6,5.7,5.7
				C4311.1,2792.2,4308.6,2794.8,4305.4,2794.8z"/>
		</g>
	</g>
	<g>
		<rect x="805" y="325.2" fill="#CEDCED" width="2811.7" height="2143.8"/>
		<rect x="805" y="605.4" fill="#BAC9D6" width="2811.7" height="71.7"/>
		<rect x="805" y="1113.4" fill="#BAC9D6" width="2811.7" height="71.7"/>
	</g>
	<g>
		<polygon fill="#BAC9D6" points="3953.2,2783.3 3998.9,2543.6 3692,2543.6 3726.3,2783.3 		"/>
		<rect x="3830.6" y="2079.7" fill="#DD8950" width="29.7" height="463.9"/>
		<path fill="#77CDC2" d="M3869.5,2015c23.9-17,62.7-5.1,73,22.4c19.6-1,39.4,8.8,50.6,24.9c11.2,16.1,13.4,38.1,5.7,56.2
			c-1,2.4-2.2,4.8-2.1,7.4c0.1,2.6,1.5,5,2.8,7.2c6.9,11.6,13.8,24,13.3,37.4c-0.4,13.4-11.4,27.4-24.8,25.9
			c0.1,16.5-10.4,32.6-25.6,39.2c-15.2,6.6-34.1,3.2-46.1-8.2c-9.8,15.4-27.1,25.8-45.4,27.3c-18.2,1.5-37-6-49.2-19.6
			c-13.8,7.9-28.2,16-44.1,17.1c-15.9,1-33.5-7.4-37.7-22.7c-10.6,6.8-25.5,3.3-34.5-5.5c-9-8.8-12.8-21.7-13.9-34.2
			c-16.9,0.4-33.6-9.6-41.3-24.7c-7.6-15.1-5.8-34.5,4.6-47.9c-15.9-8.2-19.2-32-8.6-46.5c10.5-14.5,30.8-19.5,48.3-15.7
			c5.4-16.2,15.8-31.1,30.5-39.6s34-10,48.8-1.5C3796.9,1989.9,3841.2,1992.4,3869.5,2015z"/>
	</g>
	<g>
		<g>
			<path fill="#FE7288" d="M1653.8,955.3l-38.9-31.7h-426.8c-18,0-32.6-14.6-32.6-32.6V731.4c0-18,14.6-32.6,32.6-32.6H1641
				c18,0,32.6,14.6,32.6,32.6v214.5C1673.5,956.1,1661.7,961.7,1653.8,955.3z"/>
			<path fill="#FFFFFF" d="M1618.5,752h-408c-8.4,0-15.2,6.8-15.2,15.2l0,0c0,8.4,6.8,15.2,15.2,15.2h408c8.4,0,15.2-6.8,15.2-15.2
				l0,0C1633.7,758.8,1626.9,752,1618.5,752z"/>
			<path fill="#FFFFFF" d="M1618.5,830.8h-408c-8.4,0-15.2,6.8-15.2,15.2v0c0,8.4,6.8,15.2,15.2,15.2h408c8.4,0,15.2-6.8,15.2-15.2
				v0C1633.7,837.6,1626.9,830.8,1618.5,830.8z"/>
		</g>
		<g>
			<path fill="#FFFFFF" d="M2323,1262.2h-238.3c-18.5,0-33.4-15-33.4-33.4V856.5c0-18.5,15-33.4,33.4-33.4H2323
				c18.5,0,33.4,15,33.4,33.4v372.3C2356.4,1247.3,2341.5,1262.2,2323,1262.2z"/>
			<path fill="#E9F2FF" d="M2268.4,915.6c0,12.5-3.5,24.1-9.7,34c-11.4,18.3-31.7,30.6-54.9,30.6c-23.2,0-43.5-12.2-54.9-30.6
				c-6.1-9.9-9.7-21.5-9.7-34c0-35.6,28.9-64.6,64.6-64.6C2239.5,851.1,2268.4,880,2268.4,915.6z"/>
			<path fill="#CEDCED" d="M2305.3,1002.7h-202.9c-9,0-16.4,7.3-16.4,16.4v0c0,9,7.3,16.4,16.4,16.4h202.9c9,0,16.4-7.3,16.4-16.4v0
				C2321.7,1010.1,2314.3,1002.7,2305.3,1002.7z"/>
			<path fill="#CEDCED" d="M2305.3,1067.2h-202.9c-9,0-16.4,7.3-16.4,16.4l0,0c0,9,7.3,16.4,16.4,16.4h202.9c9,0,16.4-7.3,16.4-16.4
				l0,0C2321.7,1074.5,2314.3,1067.2,2305.3,1067.2z"/>
			<path fill="#E9F2FF" d="M2305.3,1131.6h-202.9c-9,0-16.4,7.3-16.4,16.4v62.5c0,9,7.3,16.4,16.4,16.4h202.9
				c9,0,16.4-7.3,16.4-16.4V1148C2321.7,1138.9,2314.3,1131.6,2305.3,1131.6z"/>
			<path fill="#CEDCED" d="M2258.7,949.6c-11.4,18.3-31.7,30.6-54.9,30.6c-23.2,0-43.5-12.2-54.9-30.6c8.7-17.5,25.5-30.2,45.5-33.3
				c-7.4-3.5-12.6-11.1-12.6-19.9c0-12.2,9.8-22,22-22c12.1,0,22,9.8,22,22c0,8.8-5.2,16.3-12.6,19.9
				C2233.2,919.4,2250,932.1,2258.7,949.6z"/>
		</g>
		<g>
			<path fill="#F8BBBA" d="M2298.6,1558.5c-46.9-7.9-65.7-8-111.8-19.5c-34.9-7.8-69.1-16.1-103.1-25.5
				c-9.9-3.7-16.1-10.2-21.7-16.5c-23.1-26-44.2-53.8-62.9-83.1c19.1-27.7,45.3-50,75-65.5c7.1,22,16.5,47,27,72.3
				c73.1,35.5,147.9,67.4,223.7,95.9C2324.5,1535.1,2296.5,1543.7,2298.6,1558.5z"/>
			<path fill="#66C7BF" d="M1975.8,1123.5c40.5,25.1,66,77.7,83.4,122.1c17.3,44.4,28,91.3,49.3,131.3
				c-35,32.1-72.3,61.8-112.4,89.2c-16.7-27-32.1-54.8-50.6-85c-1.5-43.5-1.3-87.1,0.7-130.5
				C1948.2,1209.7,1952.6,1157.6,1975.8,1123.5z"/>
			<path fill="#80D6D0" d="M1698.8,1129.9c15.9-12.4,34.6-20.6,53.3-28.1c21.7-8.7,43.8-16.7,66.8-20.9c23-4.2,45.5,3.8,66.4,10.4
				c33.3,12.7,59.2,14,90.4,32.2c2.8,53.3,8.5,111.6,15.2,167.5c3.8,31.9,0.2,64.5-11.7,94.3c-3.3,8.3-5.9,16.7-7.3,25.5
				c-2,12.5-1.6,25.2-1.1,37.8c1.4,39.9,2.7,79.8,4.9,118.3c1.2,77.6,8,155.1,18.2,234.9c-50.8,14.7-104.3,16.8-157.2,18.8
				c-70.8,2.6-142.8,5.2-212-12.5c24.3-80.2,48.7-160.4,72.9-240.8c-15.7-93.1-21.3-188-17.3-280.7
				C1689.8,1234.8,1696.7,1182.5,1698.8,1129.9z"/>
			<path fill="#2F1809" d="M1868.5,898c-17.2-13.3-41.5-15.5-62-8.3c-20.5,7.2-37.4,22.9-48.8,41.4c-11.4,18.5-17.8,39.7-21.7,61.1
				c-8.7,47.6-6.3,98.2-26.5,142.2c-5.1,11-11.7,22.4-10.1,34.5c1.1,8.2,6,15.6,12.2,21.1c10.2,9,26,13.3,37.6,6.2
				c9.3-5.6,13.5-16.6,16.7-27c9.6-31.9,14-65.8,29.8-95.2c6.4-11.9,14.8-23.3,17.1-36.7c2-11.9-1.1-24-1.1-36.1
				c0-20.2,8.8-39.5,20.2-56.2S1857.3,913.6,1868.5,898z"/>
			<g>
				<g>
					<path fill="#3F8A87" d="M1784.1,1288.2c-0.1,0-0.2,0-0.2,0c-0.6-0.1-1-0.7-0.9-1.4c2.3-11,3.9-22.2,4.6-33.4
						c0-0.6,0.6-1.1,1.2-1.1c0.6,0,1.1,0.6,1.1,1.2c-0.7,11.3-2.3,22.7-4.6,33.7C1785.1,1287.9,1784.6,1288.2,1784.1,1288.2z"/>
				</g>
			</g>
			<g>
				<g>
					<path fill="#3F8A87" d="M1850.1,1379.6c-0.3,0-0.6-0.1-0.9-0.4c-0.4-0.5-0.4-1.2,0.1-1.6c15.9-13.8,28.8-31.2,37.4-50.4
						c0.3-0.6,0.9-0.8,1.5-0.6c0.6,0.3,0.8,0.9,0.6,1.5c-8.7,19.5-21.8,37.3-38,51.2C1850.6,1379.5,1850.3,1379.6,1850.1,1379.6z"/>
				</g>
			</g>
			<path fill="#4F6A93" d="M2218,1483.6c-8.8-18-17.6-35.9-26.4-53.9c-4.5-9.3-9.1-18.6-12-28.5c-0.8-2.6-1.3-5.7,0.6-7.7
				c1.8-1.9,5.1-1.6,7.2,0c2.1,1.6,3.3,4.1,4.4,6.5c13.4,28.9,26.7,57.9,41,86.3C2227,1484.5,2221.1,1483.1,2218,1483.6z"/>
			<path fill="#F8BBBA" d="M1805.5,1388.8c14.4,29,27.2,49.6,43.4,79.4c95.8,4.1,194.5,18.9,288.5,29.9c29-8.6,58.3-15.9,86.6-22.4
				c6.2-1.4,12.7,0,17.7,3.8c9.2,7.1,18,14.3,25.8,21.8c3.9,3.8,4.9,9.6,2.6,14.5c-6,12.6-16.5,23.3-30.7,29.8
				c-10.8,2.3-22.2-0.7-33.1,1.4c-4.6,0.9-8.9,2.7-13.3,4c-16.9,4.9-35.1,2.5-51.4,0.7c-92.1,3.9-184.2,7.8-276.3,11.7
				c-14.1,0.6-28.3,1.2-42.1-1.9c-13.7-3-27.2-10.1-34.1-21c-27.6-34.3-53.1-70.3-76.6-107.6L1805.5,1388.8z"/>
			<g>
				<path fill="#F18E8B" d="M2270.1,1517c-0.2,0-0.3,0-0.5-0.1l-35.4-16.6c-0.6-0.3-0.8-0.9-0.5-1.5c0.3-0.6,0.9-0.8,1.5-0.5
					l35.4,16.6c0.6,0.3,0.8,0.9,0.5,1.5C2270.9,1516.7,2270.5,1517,2270.1,1517z"/>
			</g>
			<g>
				<path fill="#F18E8B" d="M2265.3,1529.7c-0.1,0-0.2,0-0.4-0.1l-38.7-12.8c-0.6-0.2-0.9-0.8-0.7-1.4c0.2-0.6,0.8-0.9,1.4-0.7
					l38.7,12.8c0.6,0.2,0.9,0.8,0.7,1.4C2266.2,1529.4,2265.8,1529.7,2265.3,1529.7z"/>
			</g>
			<polygon fill="#FFFFFF" points="2112.6,1558.5 2358.1,1495.4 2473.2,1495.4 2300,1558.5 			"/>
			<polygon fill="#F8BBBA" points="2364.4,1509.9 2420.6,1505.9 2434.9,1509.9 2426.3,1522.1 2370.1,1542.1 2341.2,1533.6 			"/>
			<g>
				<path fill="#F18E8B" d="M2137.4,1499.2c0,0-0.1,0-0.1,0l-102.5-10.4c-0.6-0.1-1.1-0.6-1-1.3c0.1-0.6,0.6-1.1,1.3-1l102.3,10.4
					l68.3-18.1c0.6-0.2,1.2,0.2,1.4,0.8c0.2,0.6-0.2,1.2-0.8,1.4l-68.5,18.2C2137.6,1499.2,2137.5,1499.2,2137.4,1499.2z"/>
			</g>
			<path fill="#402410" d="M1999.8,985c8.1-8,16.6-16.5,19.5-27.6c2.1-8.2,0.9-16.9-1.5-25c-9.7-32.1-39.8-57.1-73.2-60.6
				c-7.8-0.8-15.7-0.6-23.6,0.2c-22.2,2.3-44.2,9-62.3,22c-22.5,16.2-37.9,42-41.5,69.6c-2.2,17.3,0.3,35.8,10.4,50
				c5,7,11.6,12.8,18.9,17.2c6.2,3.7,13.1,6.6,20.3,6.5c11.8-0.2,21.8-8.2,31.3-15.1c16.9-12.3,35.5-22.6,55.8-27.8
				C1969,990.7,1988.8,995.8,1999.8,985z"/>
			<path fill="#F8BBBA" d="M2015.8,961.8c-11.1,33.6-25.4,66.2-42.7,97c-8.5,15.1-21.5,26-38.7,27.6c-36.7,3.3-78.6-35-85-65.9
				c-6.1-2.6-10.4-8.3-12.7-14.5c-2.3-6.2-2.6-12.9-2.3-19.5c0.2-4.8,0.7-9.7,2.7-14c2.1-4.3,5.9-8.1,10.6-8.8
				c6.7-1.1,13.1,4,15.9,10.2s2.6,13.2,1.5,20.1c5.3-2.6,9.5-7.4,11.3-13c0.4-1.4,0.8-2.9,1.6-4.1c0.9-1.3,2.3-2.2,3.6-3.3
				c4.2-3.7,5.6-9.6,7.6-14.9c0.4-1,0.8-2,1.7-2.4c0.7-0.3,1.6-0.2,2.4-0.2c5.2,0.2,10.1-3.1,13.1-7.3s4.6-9.3,6.4-13.9
				c25.7-9.3,55-8.2,79.9,3.1C2002.6,942.5,2012.7,949.9,2015.8,961.8z"/>
			<g>
				<g>
					<path fill="#F18E8B" d="M1942.8,1051.2c-5.1,0-10.1-0.8-14.9-2.5c-9.2-3.2-17.3-9.4-22.7-17.6c-0.4-0.5-0.2-1.2,0.3-1.6
						c0.5-0.4,1.2-0.2,1.6,0.3c5.2,7.7,12.8,13.6,21.6,16.7c8.7,3,18.4,3.2,27.3,0.3c0.6-0.2,1.2,0.1,1.4,0.7
						c0.2,0.6-0.1,1.2-0.7,1.4C1952.2,1050.5,1947.5,1051.2,1942.8,1051.2z"/>
				</g>
			</g>
			<path fill="#F8BBBA" d="M1924.1,1064c-0.3,18.8,0.4,37.6,1.2,56.5c-4.7,27.2-11.3,54.1-20.5,79.9c-12.5,2.8-25.5,2.7-35.2-0.6
				c-11.6-18.3-23.3-36.8-31.9-56.7c-8.6-19.9-14-41.6-11.5-62.8c13.9-23.5,27.3-47.3,40.9-70.8
				C1881.8,1032,1909,1043.6,1924.1,1064z"/>
			<g>
				<g>
					<path fill="#F18E8B" d="M1930.1,1087.8C1930.1,1087.8,1930.1,1087.8,1930.1,1087.8c-46.3-0.1-76.1-51.7-76.4-52.2
						c-0.3-0.5-0.1-1.2,0.4-1.6c0.6-0.3,1.2-0.1,1.6,0.4c0.3,0.5,29.5,51,74.5,51c0.6,0,1.1,0.5,1.1,1.1
						C1931.2,1087.3,1930.7,1087.8,1930.1,1087.8z"/>
				</g>
			</g>
			<path fill="#80D6D0" d="M1731.9,1115c-35.8,5.8-64.2,36-76.7,70c-12.5,34.1-11.7,71.6-7.6,107.6c6.8,60.3,22.2,119.7,45.8,175.6
				c1.7,8.4,4.2,16.7,6.9,25.2c21.4,2.2,43.1-3.3,62.7-12.2c19.6-9,37.5-21.3,55.2-33.6c7-4.8,14-9.8,19.5-14.8
				c-18.4-58.1-40-115.3-64.5-168.6C1772.6,1212.4,1758.7,1160.6,1731.9,1115z"/>
			<g>
				<g>
					<path fill="#3F8A87" d="M1702.2,1494.7c-0.6,0-1.3,0-1.9,0c-0.5,0-1-0.4-1.1-0.8l-6.9-25.2l-29.6-87.4
						c-0.2-0.6,0.1-1.2,0.7-1.4c0.6-0.2,1.2,0.1,1.4,0.7l29.6,87.5l6.7,24.4c0.3,0,0.7,0,1,0c67.3,0,128.2-54.2,134.2-59.8
						c-8.4-32-63.7-166.4-64.3-167.8c-0.2-0.6,0-1.3,0.6-1.5c0.6-0.2,1.3,0,1.5,0.6c0.6,1.4,56.7,137.8,64.5,168.8
						c0.1,0.4,0,0.8-0.3,1.1C1837.9,1434.4,1773.7,1494.7,1702.2,1494.7z"/>
				</g>
			</g>
			<g>
				<path fill="#3F8A87" d="M1991.3,1305.7c-0.6,0-1.1-0.4-1.1-1l-11.2-119.4c-0.1-0.6,0.4-1.2,1-1.2c0.6,0,1.2,0.4,1.2,1
					l11.2,119.4c0.1,0.6-0.4,1.2-1,1.2C1991.4,1305.7,1991.3,1305.7,1991.3,1305.7z"/>
			</g>
			<g>
				<path fill="#E9F2FF" d="M1990.5,1403.2h-74.7c-4.9,0-8.8-4-8.8-8.8v-100.7c0-4.9,4-8.8,8.8-8.8h74.7c4.9,0,8.8,4,8.8,8.8v100.7
					C1999.3,1399.3,1995.4,1403.2,1990.5,1403.2z"/>
				<path fill="#CEDCED" d="M1984.4,1367h-62.4c-3.8,0-6.9,3.1-6.9,6.9l0,0c0,3.8,3.1,6.9,6.9,6.9h62.4c3.8,0,6.9-3.1,6.9-6.9l0,0
					C1991.3,1370.1,1988.2,1367,1984.4,1367z"/>
				<path fill="#FE7288" d="M1915.8,1352.9h74.7c-6.2-11.4-17.5-19.6-30.8-21.6c5.2-2.4,8.8-7.7,8.8-13.8c0-8.4-6.8-15.3-15.3-15.3
					c-8.4,0-15.3,6.8-15.3,15.3c0,6.1,3.6,11.4,8.8,13.8C1933.3,1333.3,1922,1341.5,1915.8,1352.9z"/>
				<g>
					<path fill="#3F8A87" d="M1988.6,1271.4H1915c-0.6,0-1.1-0.5-1.1-1.1c0-0.6,0.5-1.1,1.1-1.1h73.6c0.6,0,1.1,0.5,1.1,1.1
						C1989.7,1270.9,1989.2,1271.4,1988.6,1271.4z"/>
				</g>
				<polygon fill="#4F6A93" points="1955.7,1290 1950.5,1290 1947.6,1264 1958.7,1264 				"/>
			</g>
			<g>
				<path fill="#3F8A87" d="M1915,1219.9h-53.5c-0.3,0-0.6-0.1-0.8-0.3c-46.2-47-52.4-118.8-52.4-119.5c-0.1-0.6,0.4-1.2,1-1.2
					c0.6,0,1.2,0.4,1.2,1c0.1,0.7,6.2,71.4,51.5,117.8h52.4c2.9-5.1,24.3-44.4,21.7-85.9c0-0.6,0.4-1.2,1.1-1.2
					c0.6,0,1.2,0.4,1.2,1.1c2.8,45-22.1,87.4-22.4,87.8C1915.8,1219.7,1915.4,1219.9,1915,1219.9z"/>
			</g>
		</g>
	</g>
	<g>
		<circle fill="#FFFFFF" cx="2232.8" cy="554.1" r="197.9"/>
		<circle fill="#E9F2FF" cx="2232.8" cy="554.1" r="178.4"/>
		<circle fill="#4F6A93" cx="2232.8" cy="554.1" r="5.8"/>
		<g>
			<g>
				<path fill="#4F6A93" d="M2154.4,583.9c-1.4,0-2.8-0.9-3.2-2.3c-0.6-1.8,0.4-3.7,2.2-4.3l76.1-25.6V408.8c0-1.9,1.5-3.4,3.4-3.4
					c1.9,0,3.4,1.5,3.4,3.4v145.3c0,1.5-0.9,2.8-2.3,3.2l-78.4,26.3C2155.2,583.8,2154.8,583.9,2154.4,583.9z"/>
			</g>
		</g>
	</g>
	<g>
		<rect x="729.4" y="1736.7" fill="#F39D63" width="2970.7" height="1046.6"/>
		<rect x="729.4" y="1736.7" fill="#DD8950" width="634.1" height="1046.6"/>
		<path fill="#FFFFFF" d="M1009.6,1736.7L947.4,1518c-2-7.2,3.3-14.3,10.8-14.3h427.7c5,0,9.4,3.3,10.8,8.2l64,224.9H1009.6z"/>
		<circle fill="#CEDCED" cx="1189.8" cy="1666.3" r="34.3"/>
		<path fill="#FFFFFF" d="M694,1896.7v886.6h3041.6v-296.9l-378.8-398.3c-116.2-122.2-277.5-191.4-446.2-191.4H694z"/>
		<rect x="775.1" y="1613.3" fill="#6D756E" width="61.7" height="123.4"/>
		<rect x="1332.7" y="1613.3" fill="#6D756E" width="61.7" height="123.4"/>
		<rect x="2109.6" y="1613.3" fill="#6D756E" width="61.7" height="123.4"/>
		<rect x="2946" y="1613.3" fill="#6D756E" width="61.7" height="123.4"/>
		<rect x="3585.8" y="1613.3" fill="#6D756E" width="61.7" height="123.4"/>
		<rect x="729.4" y="1558.5" fill="#E9F2FF" width="2970.7" height="54.8"/>
		<g>
			<g>
				<path fill="#3B4C64" d="M3368.6,1546.5c-19.7,0-33.7-6.7-41.9-20c-31.3-51.3,35.3-181.9,38.1-187.4c0.3-0.6,1-0.8,1.5-0.5
					c0.6,0.3,0.8,1,0.5,1.5c-0.7,1.3-68.8,135-38.2,185.2c7.7,12.6,21.1,18.9,39.9,18.9c0.6,0,1.1,0.5,1.1,1.1
					C3369.7,1546,3369.2,1546.5,3368.6,1546.5z"/>
			</g>
			<path fill="#4F6A93" d="M3383.8,1526.9l-23-197.3c-0.8-6.8,4.2-12.8,10.9-13.4l0,0c6.7-0.6,12.5,4.3,13.1,11l16.9,199.7H3383.8z"
				/>
			<polygon fill="#3B4C64" points="3355,1558.5 3369.1,1520.9 3420.7,1520.9 3432.1,1558.5 			"/>
		</g>
		<path fill="#E9F2FF" d="M694,2086.9v696.4h3041.6v-62.9l-573.3-523.6c-77.5-70.7-178.6-110-283.6-110H694z"/>
		<rect x="694" y="2086.9" fill="#CEDCED" width="669.6" height="696.4"/>
		
			<rect x="694" y="1896.7" transform="matrix(-1 -1.224647e-16 1.224647e-16 -1 2057.4785 3983.6267)" fill="#E9F2FF" width="669.6" height="190.2"/>
		<g>
			<g>
				<path fill="#77CDC2" d="M2154.4,2334.6H2041c-19.8,0-35.9-16.1-35.9-35.9v-113.4c0-19.8-16.1-35.9-35.9-35.9h-129.4
					c-19.8,0-35.9,16.1-35.9,35.9v113.4c0,19.8-16.1,35.9-35.9,35.9h-113.4c-19.8,0-35.9,16.1-35.9,35.9v129.4
					c0,19.8,16.1,35.9,35.9,35.9h113.4c19.8,0,35.9,16.1,35.9,35.9v113.4c0,19.8,16.1,35.9,35.9,35.9h129.4
					c19.8,0,35.9-16.1,35.9-35.9v-113.4c0-19.8,16.1-35.9,35.9-35.9h113.4c19.8,0,35.9-16.1,35.9-35.9v-129.4
					C2190.2,2350.6,2174.2,2334.6,2154.4,2334.6z"/>
			</g>
		</g>
		<g>
			<g>
				<path fill="#92E0D5" d="M2202.9,2334.6h-113.4c-19.8,0-35.9-16.1-35.9-35.9v-113.4c0-19.8-16.1-35.9-35.9-35.9h-129.4
					c-19.8,0-35.9,16.1-35.9,35.9v113.4c0,19.8-16.1,35.9-35.9,35.9h-113.4c-19.8,0-35.9,16.1-35.9,35.9v129.4
					c0,19.8,16.1,35.9,35.9,35.9h113.4c19.8,0,35.9,16.1,35.9,35.9v113.4c0,19.8,16.1,35.9,35.9,35.9h129.4
					c19.8,0,35.9-16.1,35.9-35.9v-113.4c0-19.8,16.1-35.9,35.9-35.9h113.4c19.8,0,35.9-16.1,35.9-35.9v-129.4
					C2238.8,2350.6,2222.7,2334.6,2202.9,2334.6z"/>
			</g>
		</g>
		<g>
			<polygon fill="#BAC9D6" points="1457.9,1366.2 1536.9,1366.2 1610.2,1498.9 1544.2,1513.6 			"/>
			<polygon fill="#6CBEF9" points="1501.1,1558.5 1479.1,1348.5 1577.2,1348.5 1594.7,1558.5 			"/>
			<polygon fill="#E9F2FF" points="1544.2,1558.5 1457.9,1558.5 1457.9,1366.2 1544.2,1498.9 			"/>
			<rect x="1544.2" y="1498.9" fill="#FFFFFF" width="66" height="59.6"/>
		</g>
	</g>
	<g>
		<g>
			<path fill="#6CBEF9" d="M3183.4,909.3l38.9-31.7h426.8c18,0,32.6-14.6,32.6-32.6V685.4c0-18-14.6-32.6-32.6-32.6h-452.9
				c-18,0-32.6,14.6-32.6,32.6v214.5C3163.7,910.1,3175.5,915.7,3183.4,909.3z"/>
			<path fill="#FFFFFF" d="M3218.7,706h408c8.4,0,15.2,6.8,15.2,15.2l0,0c0,8.4-6.8,15.2-15.2,15.2h-408c-8.4,0-15.2-6.8-15.2-15.2
				l0,0C3203.5,712.8,3210.3,706,3218.7,706z"/>
			<path fill="#FFFFFF" d="M3218.7,784.9h408c8.4,0,15.2,6.8,15.2,15.2v0c0,8.4-6.8,15.2-15.2,15.2h-408c-8.4,0-15.2-6.8-15.2-15.2
				v0C3203.5,791.7,3210.3,784.9,3218.7,784.9z"/>
		</g>
		<g>
			<path fill="#FFFFFF" d="M2758.3,798.5c0,0-34.2,27.7-34.2,105.9s11.8,232.5-26.9,271.2h-194.7c0,0,31-16.1,31-75.7v-253
				c0-26.8,21.7-48.5,48.5-48.5H2758.3z"/>
			<rect x="2554.6" y="846.6" fill="#CEDCED" width="142.5" height="26.9"/>
			<g>
				<g>
					<path fill="#CEDCED" d="M2622.6,901.3h-67.9c-0.6,0-1.1-0.5-1.1-1.1s0.5-1.1,1.1-1.1h67.9c0.6,0,1.1,0.5,1.1,1.1
						S2623.2,901.3,2622.6,901.3z"/>
				</g>
			</g>
			<g>
				<g>
					<path fill="#CEDCED" d="M2697.2,901.3h-34c-0.6,0-1.1-0.5-1.1-1.1s0.5-1.1,1.1-1.1h34c0.6,0,1.1,0.5,1.1,1.1
						S2697.8,901.3,2697.2,901.3z"/>
				</g>
			</g>
			<g>
				<g>
					<path fill="#CEDCED" d="M2622.6,948.4h-67.9c-0.6,0-1.1-0.5-1.1-1.1s0.5-1.1,1.1-1.1h67.9c0.6,0,1.1,0.5,1.1,1.1
						S2623.2,948.4,2622.6,948.4z"/>
				</g>
			</g>
			<g>
				<g>
					<path fill="#CEDCED" d="M2697.2,948.4h-34c-0.6,0-1.1-0.5-1.1-1.1s0.5-1.1,1.1-1.1h34c0.6,0,1.1,0.5,1.1,1.1
						S2697.8,948.4,2697.2,948.4z"/>
				</g>
			</g>
			<g>
				<g>
					<path fill="#CEDCED" d="M2622.6,995.4h-67.9c-0.6,0-1.1-0.5-1.1-1.1c0-0.6,0.5-1.1,1.1-1.1h67.9c0.6,0,1.1,0.5,1.1,1.1
						C2623.7,994.9,2623.2,995.4,2622.6,995.4z"/>
				</g>
			</g>
			<g>
				<g>
					<path fill="#CEDCED" d="M2697.2,995.4h-34c-0.6,0-1.1-0.5-1.1-1.1c0-0.6,0.5-1.1,1.1-1.1h34c0.6,0,1.1,0.5,1.1,1.1
						C2698.3,994.9,2697.8,995.4,2697.2,995.4z"/>
				</g>
			</g>
			<g>
				<g>
					<path fill="#CEDCED" d="M2622.6,1042.4h-67.9c-0.6,0-1.1-0.5-1.1-1.1s0.5-1.1,1.1-1.1h67.9c0.6,0,1.1,0.5,1.1,1.1
						S2623.2,1042.4,2622.6,1042.4z"/>
				</g>
			</g>
			<g>
				<g>
					<path fill="#CEDCED" d="M2697.2,1042.4h-34c-0.6,0-1.1-0.5-1.1-1.1s0.5-1.1,1.1-1.1h34c0.6,0,1.1,0.5,1.1,1.1
						S2697.8,1042.4,2697.2,1042.4z"/>
				</g>
			</g>
			<g>
				<g>
					<path fill="#CEDCED" d="M2622.6,1089.5h-67.9c-0.6,0-1.1-0.5-1.1-1.1c0-0.6,0.5-1.1,1.1-1.1h67.9c0.6,0,1.1,0.5,1.1,1.1
						C2623.7,1089,2623.2,1089.5,2622.6,1089.5z"/>
				</g>
			</g>
			<g>
				<g>
					<path fill="#CEDCED" d="M2697.2,1114.9h-142.5c-0.6,0-1.1-0.5-1.1-1.1c0-0.6,0.5-1.1,1.1-1.1h142.5c0.6,0,1.1,0.5,1.1,1.1
						C2698.3,1114.4,2697.8,1114.9,2697.2,1114.9z"/>
				</g>
			</g>
			<g>
				<g>
					<path fill="#CEDCED" d="M2697.2,1089.5h-34c-0.6,0-1.1-0.5-1.1-1.1c0-0.6,0.5-1.1,1.1-1.1h34c0.6,0,1.1,0.5,1.1,1.1
						C2698.3,1089,2697.8,1089.5,2697.2,1089.5z"/>
				</g>
			</g>
			<g>
				<path fill="#80D6D0" d="M2670.7,1151.1c-4.5-0.4-7.7-2.8-7.7-7h4.5c0.1,1.8,1.2,3.2,3.2,3.5v-8c-3.6-0.9-7.7-1.9-7.7-7.1
					c0-4.1,3.1-6.9,7.7-7.3v-3h2.4v3c4.2,0.4,7,2.7,7.4,6.8h-4.5c-0.1-1.5-1.2-2.8-2.9-3.2v7.9c3.6,0.9,7.6,1.9,7.6,7
					c0,3.5-2.7,7-7.6,7.4v3h-2.4V1151.1z M2670.7,1136.1v-7.4c-2,0.3-3.4,1.5-3.4,3.7C2667.3,1134.5,2668.8,1135.5,2670.7,1136.1z
					 M2673.1,1140.3v7.4c2.2-0.4,3.4-1.9,3.4-3.8C2676.5,1141.8,2675.1,1140.9,2673.1,1140.3z"/>
			</g>
			<g>
				<path fill="#80D6D0" d="M2642.5,1151.1c-4.5-0.4-7.7-2.8-7.7-7h4.5c0.1,1.8,1.2,3.2,3.2,3.5v-8c-3.6-0.9-7.7-1.9-7.7-7.1
					c0-4.1,3.1-6.9,7.7-7.3v-3h2.4v3c4.2,0.4,7,2.7,7.4,6.8h-4.5c-0.1-1.5-1.2-2.8-2.9-3.2v7.9c3.6,0.9,7.6,1.9,7.6,7
					c0,3.5-2.7,7-7.6,7.4v3h-2.4V1151.1z M2642.5,1136.1v-7.4c-2,0.3-3.4,1.5-3.4,3.7C2639.1,1134.5,2640.6,1135.5,2642.5,1136.1z
					 M2644.9,1140.3v7.4c2.2-0.4,3.4-1.9,3.4-3.8C2648.3,1141.8,2646.9,1140.9,2644.9,1140.3z"/>
			</g>
			<g>
				<path fill="#80D6D0" d="M2614.3,1151.1c-4.5-0.4-7.7-2.8-7.7-7h4.5c0.1,1.8,1.2,3.2,3.2,3.5v-8c-3.6-0.9-7.7-1.9-7.7-7.1
					c0-4.1,3.1-6.9,7.7-7.3v-3h2.4v3c4.2,0.4,7,2.7,7.4,6.8h-4.5c-0.1-1.5-1.2-2.8-2.9-3.2v7.9c3.6,0.9,7.6,1.9,7.6,7
					c0,3.5-2.7,7-7.6,7.4v3h-2.4V1151.1z M2614.3,1136.1v-7.4c-2,0.3-3.4,1.5-3.4,3.7C2610.9,1134.5,2612.4,1135.5,2614.3,1136.1z
					 M2616.7,1140.3v7.4c2.2-0.4,3.4-1.9,3.4-3.8C2620.1,1141.8,2618.7,1140.9,2616.7,1140.3z"/>
			</g>
		</g>
		<g>
			<path fill="#6CBEF9" d="M2761.5,2693.8l-138.2,62.2c-5.1,2.3-8.4,7.4-8.4,13l0,0c0,7.9,6.4,14.3,14.3,14.3h218.6
				c15,0,25.8-14.5,21.5-28.9l-18.2-60.6C2851.1,2693.8,2818.5,2728,2761.5,2693.8z"/>
			<path fill="#F8BBBA" d="M2851.1,2693.8l9-59.5l-96.9,6.5l-1.6,52.9c0,0,14.7,31,45.6,32.6
				C2838.1,2728,2851.1,2693.8,2851.1,2693.8z"/>
			<path fill="#6CBEF9" d="M3054.9,2693.8l-138.2,62.2c-5.1,2.3-8.4,7.4-8.4,13l0,0c0,7.9,6.4,14.3,14.3,14.3h218.6
				c15,0,25.8-14.5,21.5-28.9l-18.2-60.6C3144.5,2693.8,3111.9,2728,3054.9,2693.8z"/>
			<path fill="#F8BBBA" d="M3144.5,2693.8l-8.4-58.3l-94.3,6.3l13.2,51.9c0,0,14.7,31,45.6,32.6
				C3131.5,2728,3144.5,2693.8,3144.5,2693.8z"/>
			<path fill="#4F6A93" d="M3107.1,1649.9c66.5,196.9,10,412.8,28.3,622.6c-2.2,134.6,3.8,245.8,17.3,379.8
				c-40.6,17.6-87.2,10.8-130.8,4.4c-6.7-142.7-20.1-261.6-41.8-404.9c-16.5-136.3-39.8-271.9-71.8-403.1c7.5-61,15-122,23.3-181.7
				C2990.1,1659.2,3049,1654.8,3107.1,1649.9z"/>
			<path fill="#4F6A93" d="M2821.2,1641c-11.1,195.2-27.5,390.1-49.8,586.1c-9.2,141.4-20.8,282.7-34.4,423.8
				c49.8,17.6,105.8,16.9,156.9-2.5c13.3-140.1,23.2-280.5,31.1-421.1c25.6-130.9,51.2-261.8,72-386.6
				c-2.1-63.7-7.7-127.3-17.6-188.3C2928,1643.5,2875.9,1638.5,2821.2,1641z"/>
			<g>
				<path fill="#3B4C64" d="M3104.6,1806.3c-0.3,0-0.5-0.1-0.8-0.3c-28.5-25.4-47.1-61.7-51.1-99.6c-0.1-0.6,0.4-1.2,1-1.3
					c0.6-0.1,1.2,0.4,1.3,1c4,37.4,22.3,73.1,50.4,98.1c0.5,0.4,0.5,1.1,0.1,1.6C3105.2,1806.2,3104.9,1806.3,3104.6,1806.3z"/>
			</g>
			<g>
				<path fill="#3B4C64" d="M3107.3,1866.3c-0.6,0-1.1-0.5-1.1-1.1l-2-60.2c-5.4-34.9-11.3-71.8-17-107.5c-0.1-0.6,0.3-1.2,1-1.3
					c0.6-0.1,1.2,0.3,1.3,1c5.7,35.7,11.5,72.6,17,107.6l2,60.3C3108.4,1865.8,3107.9,1866.3,3107.3,1866.3
					C3107.3,1866.3,3107.3,1866.3,3107.3,1866.3z"/>
			</g>
			<g>
				<path fill="#3B4C64" d="M3096.4,2096.7C3096.3,2096.7,3096.3,2096.7,3096.4,2096.7c-0.7,0-1.2-0.6-1.1-1.2l11.8-163.3
					c0-0.6,0.6-1.1,1.2-1.1c0.6,0,1.1,0.6,1.1,1.2l-11.8,163.3C3097.5,2096.3,3097,2096.7,3096.4,2096.7z"/>
			</g>
			<g>
				<path fill="#3B4C64" d="M2916.7,1857.9c0,0-0.1,0-0.1,0c-0.6-0.1-1.1-0.6-1-1.3c6-53.1,10.2-107.2,12.5-160.7
					c0-0.6,0.6-1.1,1.2-1.1c0.6,0,1.1,0.6,1.1,1.2c-2.4,53.5-6.6,107.6-12.5,160.8C2917.7,1857.5,2917.2,1857.9,2916.7,1857.9z"/>
			</g>
			<g>
				<path fill="#3B4C64" d="M2920.5,1826.3c-0.5,0-0.9-0.3-1.1-0.7c-0.2-0.6,0-1.2,0.6-1.5c14.1-5.7,20.5-21.8,25-36.7
					c7.7-25.6,13.5-52.1,17.3-78.6c0.1-0.6,0.7-1,1.3-1c0.6,0.1,1.1,0.7,1,1.3c-3.8,26.6-9.6,53.2-17.3,79
					c-4.6,15.4-11.4,32-26.4,38.1C2920.7,1826.3,2920.6,1826.3,2920.5,1826.3z"/>
			</g>
			<path fill="#FDE5A7" d="M3161.2,1151.6c2,0.5,3.9,0.8,6,0.7c6.2,0,12.2-2.8,18-3.8c-13.8-17.8-28-33.4-47-45.4
				c-23.2-14.7-68-29-86.7-32.6c-49.3-14.4-65.7-2-115.3,11.6c-14.5,4-29,8.4-41.6,16.6c-19.7,12.7-32.9,33-45.5,52.7
				c-44,116.6-10.8,246.9-32.8,368.6c4.5,29.9-2,65.6-16.1,98.1c-1.1,2.6-2.3,5.2-2.3,8c0,2.3,0.7,4.5,1.5,6.6
				c6.5,16.4,20.4,29,36.1,37c15.7,8,33.1,11.9,50.5,14.8c65.3,11,132.5,9.9,197.4-3.2c8.2-1.7,16.4-3.5,23.9-7.2
				c20.2-10,31.6-31.5,41.7-51.7c-7.2-58.3-1.5-118.5,4.2-178.1c6.5-68,13-136,19.6-203.9c1.8-19-2.4-39.4-5.6-59.5
				C3165.6,1171,3163.8,1161.2,3161.2,1151.6z"/>
			<path fill="#F8BBBA" d="M2630.1,1513.9h-40.2l-39.1-2.2l-55.6,21.6l-37.3,25.2h78.2l13-6.1c0,0,11.9,6.1,26.6,6.1
				s59.7-6.6,59.7-6.6L2630.1,1513.9z"/>
			<path fill="#FDE5A7" d="M2860.9,1324.7c-45.8,45.6-92,90.8-138.8,135.5c-10.7,10.2-21.9,20.7-35.8,25.6
				c-25,8.9-52.8-2.1-75.1-16.5c-27.9-17.9-52.2-41.4-71.1-68.7c-11.7-25.3-26.6-51.2-41.6-77c-2.3-3.9-4.6-7.9-7.8-11.2
				c-3.6-3.7-8.2-6.3-11.4-10.2c-8.9-10.6-5.8-26.4-2.2-39.7c-3.1-1.7-6.2-3.6-9.4-5.5c-1.9-1.2-4.2-3-3.6-5.2
				c0.3-0.9,1-1.6,1.7-2.3c7.7-7.1,15.5-14.2,23.4-21.2c6.1-5.5,12.4-11,19.8-14.6c0.6-0.3,1.2-0.6,1.8-0.5c1.1,0.1,1.8,1.2,2.4,2.1
				c2.8,4.2,6.9,7.5,11.5,9.3c10.1,2.2,20.8,4.6,28,12c3.1,3.2,5.3,7,7.6,10.8c27.4,44.6,70.3,77.1,112.1,108.5
				c22.4-24,40.4-51.4,56.5-79.8c-1.5-5.3-2.7-10.7-0.6-15.3c3.9-8.3,15.4-8.7,23.1-13.4c22.5-30.5,38.6-65.5,63.4-94.2
				c24.4-28.2,56.8-49.4,94.1-56.9C2890.5,1171.1,2875,1246.8,2860.9,1324.7z"/>
			<path fill="#FDE5A7" d="M3065.9,1212.5c-45.5,71.9-92.3,142.9-144.2,213.2c-68.8,12.8-137.6,25.7-206.4,38.5
				c-14.5,2.7-29.2,5.5-42.6,11.7s-25.6,16.3-33.2,29.8c-6.3,1.4-13.6,3.5-16.1,9.5c-1.3,3.1-0.9,6.5-0.6,9.8
				c1.1,10.9,2.3,21.9,0,33.6c40.6,13.5,84.2,13.7,126.9,13c65.4-1.1,130.8-3.8,194.4-5.7c105.2-78.6,188.8-185.7,237-306.5
				c6.7-18.5,13.5-37.2,15.5-56.8c2-19.6-1.3-40.4-13-56.2c-6.5-8.7-15.9-15.7-26.6-16.9c-16.9-1.9-31.8,10.7-43.4,23.1
				C3095,1172.4,3077.8,1193.6,3065.9,1212.5z"/>
			<g>
				<path fill="#0B0A53" d="M2907.2,958.3c-4.2-11.6-11.3-21.8-17-32.7c-5.7-10.9-10.2-23.1-8.5-35.3c1.6-11.6,8.5-21.6,15.6-30.9
					c4.3-5.6,8.7-11,13.9-15.7c15.7-14,37-19.8,57.8-23.3c23.8-4,49-5.5,71.6,3.1c22.6,8.6,42,29.3,43.2,53.5
					c16,24.7,18.7,57.6,6.8,84.6c-11.8,27-37.8,47.3-66.9,52.2c-6.7,1.1-13.6,1.5-20.1-0.2c-15.1-4-25-17.9-37.6-27
					C2948.5,973.6,2925.4,970,2907.2,958.3z"/>
				<path fill="#F8BBBA" d="M3045.2,991c1.8,32.5,4.7,65,8.2,98.3c-16,6.2-32.7,10.8-49.9,11.8c-17.1,0.9-34.7-2-49.7-10.2
					c-1.8-1-3.7-2.2-4.6-4.1c-1-2.1-0.5-4.5,0-6.8c2.8-13.2,5.7-26.4,8.5-39.6c0.5-2.3,1.1-4.8,2.6-6.6c1.2-1.4,2.8-2.2,4.4-3
					C2992.1,1016.5,3019.6,1002.3,3045.2,991z"/>
				<path fill="#F8BBBA" d="M2894.1,910.4c5.4,29.1,10.7,58.2,16.1,87.4c2,10.7,4,21.6,9.5,31.1c5.1,8.9,13,16,21.5,21.7
					c6.5,4.4,13.7,8.2,21.4,9.6c10.7,2,21.7-0.7,31.8-4.7c22.7-9.2,42.2-26.1,52.9-47.4c6-1.1,12.3-2.3,16.8-6.4
					c2.4-2.2,4.1-5.1,5.6-8c4.3-8.3,7.2-17.5,6.9-26.8c-0.1-3.9-1.2-8.3-4.6-10.3c-1.9-1.1-4.2-1.2-6.3-1
					c-8.2,0.9-15.2,6.6-20.9,12.2c-1.2,7.9-2.4,15.9-3.6,23.8c-0.1,0.5-0.2,1-0.5,1.4c-0.4,0.5-1.2,0.5-1.8,0.4
					c-2.3-0.1-4.6-0.4-6.8-0.9c-2.2-19.8-4.8-39.6-8.2-60.1c-29.8,1.8-60.1-12.8-77.4-37.5c-0.9,8.5-0.4,17.1,1.5,25.4
					c0.9,3.9,2.1,7.9,5,10.9c-3.1,0.1-6.1-1.1-8.8-2.6c-11.4-6.4-18.1-18.6-23.9-30.4c-3.8,9.9-5.5,20.6-4.8,31.4
					c-2.7-4-5.4-7.9-8.8-11.4C2903.3,914.8,2899.2,912,2894.1,910.4z"/>
				<g>
					<g>
						<path fill="#F18E8B" d="M2966.2,1020.1c-7.8,0-15.5-2.1-22.2-6.2c-0.5-0.3-0.7-1-0.4-1.6c0.3-0.5,1-0.7,1.6-0.4
							c8.6,5.2,19.2,7.1,29.1,5c9.9-2.1,18.9-8,24.6-16.3c0.4-0.5,1.1-0.6,1.6-0.3c0.5,0.4,0.6,1.1,0.3,1.6
							c-6.1,8.8-15.6,15-26,17.2C2972,1019.8,2969.1,1020.1,2966.2,1020.1z"/>
					</g>
				</g>
				<g>
					<g>
						<path fill="#F18E8B" d="M2972.1,1061c-6.7,0-13.7-1-21-3.4c-0.6-0.2-0.9-0.8-0.7-1.4c0.2-0.6,0.8-0.9,1.4-0.7
							c57.4,18.5,94.1-47.3,94.5-47.9c0.3-0.6,1-0.8,1.6-0.5c0.6,0.3,0.8,1,0.5,1.5C3047.9,1009.2,3019,1061,2972.1,1061z"/>
					</g>
				</g>
			</g>
			<path fill="#F8BBBA" d="M2509.4,1216.7l-24.4-24.4c0,0-23.2-19.1-56.6-20c-33.4-0.8-34.6-2.6-34.6-2.6l-19-10.2
				c0,0-16.2-15.5-20.8-9l10.3,13.3l19.1,15.3l-20.4-4.1l-19.3-12.5c-2.9-1.9-6.7-1.5-9.2,1l0,0l-2.9-0.1c-1.8,0-3.6,0.8-4.6,2.3
				l0,0c-1.5,2.2-1.3,5.1,0.5,7l17.8,18.8l22.8,9l-26.5-5.6c0,0-11.8-7.3-15.9-2l13.6,8.6l38.8,14c0,0,35,12.5,70.6,9.6l21.6,25.9
				L2509.4,1216.7z"/>
			<path fill="#F8BBBA" d="M2445.3,1210c0,0-12.1-22.7-12-37.4l-1.1-8.9c0,0-9.9-7.3-10.1-15.9c0-2.6,2.8-4.2,5-2.8l13.7,8.3
				l26.9,20.6l17.3,18.5L2445.3,1210z"/>
			<g>
				<g>
					<path fill="#F18E8B" d="M2383.6,1188.9c-0.1,0-0.1,0-0.2,0l-26.1-4.1c-0.2,0-0.4-0.1-0.6-0.3l-22.9-20.1
						c-0.5-0.4-0.5-1.1-0.1-1.6c0.4-0.5,1.1-0.5,1.6-0.1l22.7,19.9l25.7,4c0.6,0.1,1.1,0.7,1,1.3
						C2384.6,1188.5,2384.1,1188.9,2383.6,1188.9z"/>
				</g>
			</g>
			<g>
				<g>
					<path fill="#F18E8B" d="M2448.9,1209.5c-0.1,0-0.1,0-0.2,0c-15.9-2.5-19.3-27.4-19.5-28.5c-0.1-0.6,0.4-1.2,1-1.3
						c0.6-0.1,1.2,0.4,1.3,1c0,0.2,3.3,24.2,17.6,26.5c0.6,0.1,1,0.7,0.9,1.3C2450,1209.1,2449.5,1209.5,2448.9,1209.5z"/>
				</g>
			</g>
			<g>
				<g>
					<path fill="#F18E8B" d="M2386.2,1209.5c-0.3,0-0.6-0.1-0.9-0.4c-0.4-0.5-0.4-1.2,0.1-1.6c7.8-7,14.5-26.8,14.5-27
						c0.2-0.6,0.8-0.9,1.4-0.7c0.6,0.2,0.9,0.8,0.7,1.4c-0.3,0.8-7,20.6-15.2,28C2386.8,1209.4,2386.5,1209.5,2386.2,1209.5z"/>
				</g>
			</g>
			<g>
				<g>
					<path fill="#F7C262" d="M2824.8,1410.5c-0.6,0-1.1-0.5-1.1-1.1l-0.2-48.6c-4.5-81.3,11.5-165.5,11.6-166.3
						c0.1-0.6,0.7-1,1.3-0.9c0.6,0.1,1,0.7,0.9,1.3c-0.2,0.8-16.1,84.8-11.6,165.9l0.2,48.6
						C2825.9,1410,2825.4,1410.5,2824.8,1410.5C2824.8,1410.5,2824.8,1410.5,2824.8,1410.5z"/>
				</g>
			</g>
			<g>
				<g>
					<path fill="#F7C262" d="M2727.4,1572.8c-36.4,0-71.8-2.2-105-13.2c-0.5-0.2-0.9-0.7-0.8-1.3c2.3-11.5,1.1-22.5,0-33.2
						c-0.3-3.1-0.7-7,0.7-10.3c2.5-6.1,9.3-8.5,16.4-10.1c7.2-12.6,19.1-23.2,33.5-29.9c13.6-6.3,28.5-9.1,42.8-11.7l205.9-38.4
						c57.2-77.4,106.9-154.3,143.9-212.7c0.3-0.5,1-0.7,1.6-0.4c0.5,0.3,0.7,1,0.4,1.6c-37,58.5-86.9,135.7-144.2,213.2
						c-0.2,0.2-0.4,0.4-0.7,0.4l-206.4,38.5c-14.2,2.7-29,5.4-42.3,11.6c-14.1,6.5-25.7,16.9-32.7,29.4c-0.2,0.3-0.4,0.5-0.8,0.6
						c-6.6,1.4-13.1,3.5-15.3,8.8c-1.2,2.9-0.8,6.3-0.5,9.2c1.1,10.5,2.2,21.4,0.1,32.9c39.3,12.9,81.8,13.3,125.6,12.6
						c43.1-0.7,86.6-2.2,128.7-3.6c21.5-0.7,43.7-1.5,65.3-2.1c105.1-78.6,189-187.2,236.3-305.8c0.2-0.6,0.9-0.9,1.5-0.6
						c0.6,0.2,0.9,0.9,0.6,1.5c-47.5,119.1-131.8,228.2-237.4,307c-0.2,0.1-0.4,0.2-0.6,0.2c-21.7,0.6-44,1.4-65.6,2.1
						c-42.1,1.4-85.7,2.9-128.8,3.6C2742.3,1572.7,2734.8,1572.8,2727.4,1572.8z"/>
				</g>
			</g>
			<g>
				<g>
					<path fill="#F7C262" d="M3053.4,1233.2c-0.6,0-1.1-0.5-1.1-1.1v-22.6c0-0.6,0.5-1.1,1.1-1.1c0.6,0,1.1,0.5,1.1,1.1v22.6
						C3054.6,1232.7,3054.1,1233.2,3053.4,1233.2z"/>
				</g>
			</g>
			<g>
				<path fill="#3B4C64" d="M2959.6,2106.1c-0.5,0-1-0.4-1.1-0.9l-41.6-220.2l-21.6-13.6c-0.5-0.3-0.7-1-0.4-1.6
					c0.3-0.5,1-0.7,1.6-0.4l22,13.8c0.3,0.2,0.5,0.4,0.5,0.8l41.7,220.7c0.1,0.6-0.3,1.2-0.9,1.3
					C2959.7,2106,2959.7,2106.1,2959.6,2106.1z"/>
			</g>
		</g>
	</g>
	<g>
		<polygon fill="#BAC9D6" points="928.6,2783.3 882.9,2543.6 1189.8,2543.6 1155.5,2783.3 		"/>
		<rect x="1021.5" y="2079.7" fill="#DD8950" width="29.7" height="463.9"/>
		<path fill="#77CDC2" d="M1012.4,2038.6c-23.9-17-62.7-5.1-73,22.4c-19.6-1-39.4,8.8-50.6,24.9c-11.2,16.1-13.4,38.1-5.7,56.2
			c1,2.4,2.2,4.8,2.1,7.4c-0.1,2.6-1.5,5-2.8,7.2c-6.9,11.6-13.8,24-13.3,37.4c0.4,13.4,11.4,27.4,24.8,25.9
			c-0.1,16.5,10.4,32.6,25.6,39.2c15.2,6.6,34.1,3.2,46.1-8.2c9.8,15.4,27.1,25.8,45.4,27.3s37-6,49.2-19.6
			c13.8,7.9,28.2,16,44.1,17.1s33.5-7.4,37.7-22.7c10.6,6.8,25.5,3.3,34.5-5.5c9-8.8,12.8-21.7,13.9-34.2
			c16.9,0.4,33.6-9.6,41.3-24.7s5.8-34.5-4.6-47.9c15.9-8.2,19.2-32,8.6-46.5c-10.5-14.5-30.8-19.5-48.3-15.7
			c-5.4-16.2-15.8-31.1-30.5-39.6c-14.7-8.6-34-10-48.8-1.5C1084.9,2013.4,1040.6,2015.9,1012.4,2038.6z"/>
	</g>
</g>
</svg>
