<?xml version="1.0" encoding="utf-8"?>
<!-- Generator: Adobe Illustrator 25.3.1, SVG Export Plug-In . SVG Version: 6.00 Build 0)  -->
<svg version="1.1" id="Object" xmlns="http://www.w3.org/2000/svg" xmlns:xlink="http://www.w3.org/1999/xlink" x="0px" y="0px"
	 viewBox="0 0 4680 3120" enable-background="new 0 0 4680 3120" xml:space="preserve">
<g>
	<g>
		<rect x="574.4" y="349.7" fill="#E9F2FF" width="3588.6" height="2410.6"/>
		<rect x="574.4" y="2677.1" fill="#CEDCED" width="3588.6" height="83.1"/>
		<rect x="574.4" y="2143.8" fill="#CEDCED" width="3588.6" height="225.7"/>
		<rect x="655.4" y="771.8" fill="#CEDCED" width="3426.6" height="987.4"/>
		<rect x="720.8" y="837.2" fill="#E9F2FF" width="3295.8" height="856.5"/>
		<polygon fill="#FFFFFF" points="1700.5,837.2 770.1,1693.8 720.8,1693.8 720.8,1417.4 1351,837.2 		"/>
		<polygon fill="#FFFFFF" points="4016.6,1116.5 4016.6,1438.3 3739.1,1693.8 3389.5,1693.8 		"/>
		<g>
			<polygon fill="#CEDCED" points="1876.2,468.5 969.2,468.5 866.1,605.5 1978.2,605.5 			"/>
			<rect x="1078.9" y="349.7" fill="#CEDCED" width="48.7" height="118.8"/>
			<rect x="1716.8" y="349.7" fill="#CEDCED" width="48.7" height="118.8"/>
		</g>
		<g>
			<polygon fill="#CEDCED" points="3784.5,468.5 2877.5,468.5 2774.5,605.5 3886.5,605.5 			"/>
			<rect x="2987.2" y="349.7" fill="#CEDCED" width="48.7" height="118.8"/>
			<rect x="3625.1" y="349.7" fill="#CEDCED" width="48.7" height="118.8"/>
		</g>
	</g>
	<g>
		<g>
			<path fill="#F8BBBA" d="M3150.4,2634.9l2.3,58.4c0,0-5.8,22.7,14.6,27.1c20.4,4.4,45.9-19.4,45.9-19.4l5.7-73.4L3150.4,2634.9z"
				/>
			<path fill="#4F6A93" d="M3066.4,2757.8h162.1c0,0,6.1-41.3-15.3-56.8c0,0-36.7,16.8-60.5-7.6l-63.5,37.5l-25.1,5.1
				c-4.2,0.9-7.6,4.1-8.5,8.4l0,0C3054.1,2751.2,3059.3,2757.8,3066.4,2757.8z"/>
			<path fill="#F8BBBA" d="M3268.2,2641.8l5,51.5c0,0-5.8,22.7,14.6,27.1c20.4,4.4,45.9-19.4,45.9-19.4l1.4-54.2L3268.2,2641.8z"/>
			<path fill="#4F6A93" d="M3186.9,2757.8H3349c0,0,6.1-41.3-15.3-56.8c0,0-36.7,16.8-60.5-7.6l-63.5,37.5l-25.1,5.1
				c-4.2,0.9-7.6,4.1-8.5,8.4h0C3174.6,2751.2,3179.8,2757.8,3186.9,2757.8z"/>
			<path fill="#6E4931" d="M3368.3,1316.8c26.7,17.7,43.1,49.9,41.8,81.9c-0.2,4.9-1.6,10.7-6.2,12.1c-4,1.2-8-1.6-11.1-4.5
				c-21.3-19.6-35.4-46.7-39-75.4C3358.6,1325.7,3364,1320.8,3368.3,1316.8z"/>
			<path fill="#FDE5A7" d="M3368.3,1304.5c-3.3-2.3-7.6-2.7-11.4-1.7s-7.3,3.1-10.3,5.6c-2.5,2-4.7,4.3-6.7,6.8
				c-1.2,1.5-2.4,3.2-3,5.1c-1.6,5.3,2,10.7,5.9,14.6c3.1,3.1,7,6,11.5,6.1c2.5,0,5-0.9,7.2-2.1c6.1-3.5,10.6-9.7,11.9-16.6
				C3374.5,1315.2,3372.7,1307.6,3368.3,1304.5z"/>
			<g>
				<path fill="#66C7BF" d="M3415.5,1851.7c-5,133.3-22.6,266-50.9,396.2c-5.9,134.2-11.8,268.3-19.6,404.3
					c-29.4,3-59.4,0.1-85.9-7.2c2.4-123.3,1.6-246.7,2.2-370.7c-18.8-82.6-8.2-169-17.4-253.2c-3.6-32.8-10.2-65.2-16.6-97.5
					c-13.8-19.5-26.3-39.8-38.1-60.9c13.2-36.3,30.5-71.1,51.5-103.6c2.2-3.4,5.3-7.1,9.3-6.5c1.8,0.3,3.2,1.4,4.6,2.5
					c24,19,42.4,45.4,69.7,59.2C3346.5,1825.3,3372.2,1826.8,3415.5,1851.7z"/>
				<path fill="#66C7BF" d="M3102.9,1835.3c8.8,142.8,17.7,285.5,24.4,429.1c4.1,123.9,6.7,247.8,13.7,375.2
					c29.2,4.7,59.2,4.7,85.6-3.4c12.3-118.5,20.2-237.5,23.6-352.6c7.4-95.6,20.6-190.7,36.5-281.7c12.2-51.6,12.8-105.6,4-157.8
					c-3.4-20.2-9.4-42-26.3-53.7c-12.5-8.7-28.9-10-43.8-6.9c-14.9,3.1-28.6,10.1-42.1,17
					C3153.4,1813.4,3128.2,1826.3,3102.9,1835.3z"/>
			</g>
			<g>
				<polygon fill="#3F8A87" points="3349.2,1340.9 3311.7,1325.8 3216.6,1349.3 3216.6,1457.9 3274.8,1491.6 3364.6,1414.6 				"/>
				<path fill="#6E4931" d="M3311.7,1325.8c-24.9-5.8-49.4-14.3-71.3-27.5c-21.9-13.2-41.3-31.2-54-53.3c-5-8.6-9-18.5-7.3-28.4
					c0.4-2.5,1.2-5,1.3-7.5c0.1-3.1-0.9-6-1.4-9c-1.5-9.2,1.6-18.5,5.9-26.7c7.1-13.4,17.9-24.9,29.3-30.9
					c17-13.4,40.6-14.2,62.2-12.7c9.2,0.7,18.6,1.7,26.8,5.8c7.3,3.7,13.2,9.5,19.1,15.3c9.6,9.5,19.3,19.1,27.1,30.1
					c10.5,14.7,17.6,31.9,20.5,49.7c2.3,13.8,2,28.3-3.7,41c5.9,9.8,3.5,22.7-2.5,32.4C3353.6,1319.8,3333.7,1330.9,3311.7,1325.8z"
					/>
				<path fill="#80D6D0" d="M3220.5,1113.8c-3.6,11.3-7.3,22.6-10.9,33.9c-0.3,0.9-0.6,1.9-0.3,2.9c0.3,1.2,1.4,2,2.5,2.7
					c8,5.3,16.9,10.9,26.5,9.8c4.8-0.5,9.2-2.7,13.5-5c11.8-6.2,23.2-13.3,34-21.2c0.8-0.6,1.7-1.3,2.1-2.2c0.4-1.1,0.1-2.4-0.3-3.6
					c-2.2-6.7-5-13.3-8.2-19.6c-0.9-1.7-1.8-3.4-3.2-4.6c-2.3-2-5.6-2.6-8.7-2.8C3251.5,1102.8,3235.2,1105.9,3220.5,1113.8z"/>
				<g>
					<path fill="#3F8A87" d="M3236.5,1154.3c-0.2,0-0.4,0-0.6-0.1c-0.8-0.3-1.1-1.2-0.8-2c7-15.7,19.4-28.6,34.7-36.3
						c0.7-0.4,1.6-0.1,2,0.7c0.4,0.7,0.1,1.6-0.7,2c-14.7,7.4-26.6,19.8-33.3,34.8C3237.6,1153.9,3237.1,1154.3,3236.5,1154.3z"/>
				</g>
				<path fill="#F8BBBA" d="M3189,1207.2c3,20.2,6,40.5,9,60.7c1.1,7.7,2.6,13.2,7.2,19.5c3.4,4.7,9.8,11.6,14.7,14.8
					c11.1,7.3,21.4,13.8,34.7,13.8c8.2,0,16.1-3,23.4-6.7c16.6-8.5,31-21.1,40.8-36.5c5.4,0.1,10.8-2.4,14.2-6.6
					c2.1-2.6,3.5-5.8,4.5-9c1.7-5.4,2.6-11,2.7-16.6c0-2.6-0.1-5.3-1.1-7.7c-1-2.4-2.8-4.6-5.3-5.4c-2.9-0.9-6.1,0.2-8.5,2
					c-3.3,2.5-5.6,6.4-6.5,10.9c-2.4,1.6-5.6,1.5-8.2,0.4c-2.6-1.1-4.8-3-6.8-5.1c-4.4-4.7-8-10.6-7.4-17.1
					c-4.7-1.6-8.6-5.2-11.4-9.3s-4.8-8.8-6.6-13.4c-2.3-5.6-4.6-11.4-5.9-17.4c-4.9,8-11.3,15-18.8,20.6c-2.8,2.1-5.8,4-9.1,5
					c-3.3,1-7,1.1-10.1-0.1c-8.8,8.4-21.7,12.2-33.6,9.8C3196.2,1213.1,3191.4,1211.1,3189,1207.2z"/>
				<g>
					<path fill="#F18E8B" d="M3241.2,1286.1c-1.8,0-3.6-0.1-5.4-0.3c-0.8-0.1-1.4-0.8-1.3-1.7c0.1-0.8,0.9-1.4,1.7-1.3
						c12.1,1.5,24.7-2.5,33.7-10.6c0.6-0.6,1.6-0.5,2.1,0.1c0.6,0.6,0.5,1.6-0.1,2.1C3263.6,1281.9,3252.4,1286.1,3241.2,1286.1z"/>
				</g>
				<path fill="#F8BBBA" d="M3244,1307c-1.7,13-9.1,25.3-7.9,38.3c0.4,4.8,2,9.3,3.6,13.8c1.8,5.2,3.6,10.4,5.4,15.7
					c0.8,2.3,1.6,4.7,3,6.7c2.9,4.4,8,7,13.2,8.1c5.2,1,10.5,0.7,15.8,0.3c2.9-0.2,6-0.5,8.4-2.1c1.5-1,2.7-2.5,3.8-4
					c13.1-17.4,23.9-36.6,31.8-57.1c-1.2-17.7-5-35.3-11.2-51.9C3289.1,1287.3,3267.2,1298,3244,1307z"/>
				<g>
					<path fill="#F18E8B" d="M3254.7,1318.6c-2.4,0-5-0.3-7.6-1.2c-0.8-0.3-1.2-1.1-0.9-1.9c0.3-0.8,1.1-1.2,1.9-0.9
						c5.6,1.9,11.4,0.9,15.3-0.4c4.9-1.6,9.5-4.2,14.5-7.2c14.4-8.5,29.1-18.1,37.2-32.3c0.4-0.7,1.3-1,2-0.6c0.7,0.4,1,1.3,0.6,2
						c-8.5,14.9-23.6,24.6-38.3,33.4c-5.2,3.1-9.9,5.8-15.1,7.4C3261.8,1317.9,3258.4,1318.6,3254.7,1318.6z"/>
				</g>
			</g>
			<g>
				<path fill="#80D6D0" d="M3320.5,1329c-11.1,38.4-29.7,74.6-54.6,106.1c-12.9-32.9-21.6-68.1-28.7-102.6
					c-22.2,10.3-47,18.9-68,33.7c-6.8,25.9-12.5,54.7-19.2,80.6c-1.8,6.9-3.6,14-3.1,21.1c0.8,11.8,7.7,22.2,11.7,33.3
					c5.7,15.8,5.6,33.1,5.4,49.9c-0.3,27.1-0.7,54.2-1.9,82.2c-34.9,68-58.3,141.9-76.4,220.4c43.9,13.6,89.9,27,134.1,22.1
					c12.6-35.2,25.1-70.5,36.5-101.8c-0.6,34.4,1.8,68.9,4.8,104.2c56.8,8.8,117.2,8.2,169.2-15.7c-4.3-68.6-20.2-136.4-49.4-197
					c11.2-68.9,16.6-138.6,13.2-206.6c0.7-36.5,1.3-73-0.4-109.6C3369.3,1341.1,3344.7,1333.8,3320.5,1329z"/>
				<path fill="#80D6D0" d="M3169.2,1366.2c-21.3,10.6-44.2,38.5-56.2,68.9c-12,30.4-31.8,79.1-41,112c15.7,7.2,47.9,13.2,64.9,19.6
					c16.1-21,29.6-43.9,40.3-68C3179.2,1456,3177.6,1410.5,3169.2,1366.2z"/>
				<path fill="#1E3A45" d="M3200.9,1448.5c-4.5-13.9-8.7-27.9-12.6-42c-1.9-6.7-3.7-13.6-4-20.6c-0.1-2.2,0.6-5.1,2.8-5.2
					c2-0.1,3,2.3,3.6,4.2c5.9,21,13.2,41.7,21.8,61.9C3209.3,1448.3,3205.6,1448.6,3200.9,1448.5z"/>
				<g>
					<path fill="#3F8A87" d="M3272.7,1444.1c-0.3,0-0.7-0.1-1-0.4c-0.6-0.5-0.7-1.5-0.2-2.1c5.2-6.2,12.5-9.7,19.6-13.2
						c7.3-3.5,14.1-6.9,18.9-12.8c6.3-7.8,7.3-19.8,2.3-28.4c-0.2-0.4-0.3-1,0-1.4c0.2-0.4,0.6-0.8,1.1-0.8
						c9-1.4,14.8-10.6,15.9-19.1c1.2-9.3-1.8-18.9-4.5-27.3c-0.2-0.8,0.2-1.6,1-1.9c0.8-0.3,1.6,0.2,1.9,1
						c2.7,8.7,5.9,18.7,4.6,28.6c-1.1,8.9-7.1,18.7-16.4,21.2c4.6,9.6,3.2,21.7-3.5,30c-5.2,6.4-12.7,10.1-19.9,13.6
						c-7.1,3.5-13.9,6.8-18.6,12.4C3273.6,1443.9,3273.1,1444.1,3272.7,1444.1z"/>
				</g>
				<g>
					<path fill="#3F8A87" d="M3260.4,1442.7c-0.4,0-0.8-0.2-1.1-0.5c-8.3-8.9-17.3-17.1-27-24.5l-0.4-0.3c-3.2-2.5-6.5-5-8.4-8.7
						c-4-7.9-0.1-16.9,4.5-24.8c-1.5-1.1-3.3-2-5.1-2.8c-4.2-2.1-8.5-4.2-9.2-9.1c-0.4-3,1-5.9,2.1-8l10.4-20.6c0.4-0.7,1.3-1,2-0.7
						c0.7,0.4,1,1.3,0.7,2l-10.4,20.6c-1.1,2.3-2.1,4.3-1.8,6.2c0.4,3.3,3.7,4.9,7.5,6.8c2.3,1.2,4.8,2.3,6.7,4.1
						c0.5,0.5,0.7,1.3,0.3,1.9c-4.5,7.5-8.7,16-5.1,23c1.6,3.1,4.7,5.5,7.6,7.7l0.4,0.3c9.8,7.5,19,15.8,27.3,24.8
						c0.6,0.6,0.5,1.6-0.1,2.1C3261.2,1442.5,3260.8,1442.7,3260.4,1442.7z"/>
				</g>
				<g>
					<path fill="#3F8A87" d="M3256.3,1775.5C3256.3,1775.5,3256.2,1775.5,3256.3,1775.5c-0.9,0-1.5-0.7-1.5-1.6
						c0.1-2,7.9-199.7-2.7-243.2c-10.9-44.1,12.3-95.8,12.5-96.3c0.3-0.8,1.2-1.1,2-0.7c0.8,0.3,1.1,1.2,0.7,2
						c-0.2,0.5-22.9,51.2-12.3,94.3c10.8,43.8,3.2,235.8,2.8,244C3257.7,1774.9,3257.1,1775.5,3256.3,1775.5z"/>
				</g>
				<g>
					<path fill="#3F8A87" d="M3324.3,1884.9c-20,0-41.2-1.7-63.5-5.2c-0.7-0.1-1.2-0.7-1.3-1.4c-3-35.4-5-65.6-4.9-95.5
						c-10.6,29.2-22.2,61.8-33.4,93.3l-0.1,0.2c-0.2,0.5-0.7,0.9-1.2,1c-43.2,4.8-86.5-7.2-134.7-22.1c-0.8-0.2-1.2-1.1-1-1.9
						c0.2-0.8,1.1-1.2,1.9-1c47.5,14.7,90.3,26.6,132.6,22.1c12.3-34.4,24.9-69.9,36.2-101c0.2-0.7,1-1.1,1.7-1
						c0.7,0.1,1.2,0.8,1.2,1.5c-0.6,32.5,1.5,64.7,4.7,102.9c66.2,10.1,122.4,4.8,167.2-15.7c0.8-0.3,1.6,0,2,0.7
						c0.3,0.8,0,1.6-0.7,2C3400.4,1877.9,3364.7,1884.9,3324.3,1884.9z"/>
				</g>
			</g>
			<g>
				<path fill="#3F8A87" d="M3258.3,2267.6c-0.6,0-1.2-0.4-1.4-1c-15.1-45.8-28.4-315.7-29.2-333.6l-28.9-31.5
					c-0.6-0.6-0.5-1.6,0.1-2.1c0.6-0.6,1.6-0.5,2.1,0.1l29.3,31.9c0.2,0.3,0.4,0.6,0.4,0.9c0.1,2.9,13.9,287.3,29.1,333.3
					c0.3,0.8-0.2,1.6-1,1.9C3258.6,2267.6,3258.4,2267.6,3258.3,2267.6z"/>
			</g>
			<path fill="#80D6D0" d="M3167.4,1468.8c-26.4,26.1-67.6,51.7-95.4,78.4c-0.3,13.5-4,27.3,5.2,37.2c9.2,9.9,28.5,6.5,40.3-0.1
				c11.7-6.6,24.5-17,30.8-23.4c19.2-19.3,36.5-33.5,46.7-59.2C3186.2,1485.4,3178.2,1480.2,3167.4,1468.8z"/>
			<g>
				<path fill="#3F8A87" d="M3092,1531.2c-0.4,0-0.9-0.2-1.2-0.6c-0.5-0.6-0.4-1.6,0.2-2.1l75.4-60.9c0.6-0.5,1.6-0.4,2.1,0.2
					c0.5,0.6,0.4,1.6-0.2,2.1l-75.4,60.9C3092.7,1531.1,3092.3,1531.2,3092,1531.2z"/>
			</g>
			<polygon fill="#F18E8B" points="3298.6,1475.1 3282.5,1466.5 3257.9,1463.1 3275,1486.7 			"/>
			<path fill="#F19D63" d="M3317.6,1614.7h-108.9c-3.2,0-6.1-2-7.2-5.1l-64.7-179.5c-1.8-5,1.9-10.3,7.2-10.3h108.9
				c3.2,0,6.1,2,7.2,5.1l64.7,179.5C3326.6,1609.4,3322.9,1614.7,3317.6,1614.7z"/>
			<g>
				<path fill="#F8BBBA" d="M3370.4,1512c-17.7-11.4-36-21.9-59.1-32.5c-8.1-4.8-18-5.5-27.4-4.9c-9.4,0.6-18.8,2.2-30.4,1
					c-5.3-1.1-10.5-2.8-16.2-5.5c-4.1-2-8.7,1.7-7.8,6.1c0.4,2,1.1,4,1.8,5.9c5.5,14.9,13.5,29,24.1,40.9c9.2,2,18.4,4,28.1,5.3
					c9.5-1.6,19.1-2.8,28.4-4.6c12.2,10,25,19.3,37.1,27.9C3358.3,1539.8,3366.3,1527,3370.4,1512z"/>
				<path fill="#80D6D0" d="M3468.7,1591.5c-3,12.9-11.7,25.2-24.4,28.7c-11.6,3.2-23.9-1.4-34.5-7c-20.7-11.1-38.8-26.9-55.6-45.2
					l-15-14.4c9.2-18.1,16-32.2,26.9-50.9l14,5.6c3.4,0.6,6.8,1.2,10.9,1.8c-6.3-23.5-14.8-46.4-25.7-66.9
					c2.3-26.5,8.7-52.7,18.6-77.4c1.9-4.6,3.6-11,9.7-16.5c30.5,17.8,43.2,56.7,51.7,90.9c9.2,36.9,16.6,74.3,22.4,111.9
					C3469.8,1565.2,3471.6,1578.6,3468.7,1591.5z"/>
				<g>
					<path fill="#3F8A87" d="M3427.1,1525.3c-0.2,0-0.4,0-0.5-0.1l-36.1-13.7c-0.4-0.2-0.7-0.5-0.9-0.9l-20.6-56.8
						c-0.3-0.8,0.1-1.6,0.9-1.9c0.8-0.3,1.6,0.1,1.9,0.9l20.4,56.2l35.4,13.4c0.8,0.3,1.2,1.2,0.9,1.9
						C3428.3,1524.9,3427.7,1525.3,3427.1,1525.3z"/>
				</g>
				<g>
					<path fill="#3F8A87" d="M3377.1,1473.1c-0.4,0-0.8-0.2-1.1-0.5l-12.5-13.7c-0.6-0.6-0.5-1.6,0.1-2.1c0.6-0.6,1.6-0.5,2.1,0.1
						l12.5,13.7c0.6,0.6,0.5,1.6-0.1,2.1C3377.8,1473,3377.4,1473.1,3377.1,1473.1z"/>
				</g>
				<g>
					<path fill="#3F8A87" d="M3409.7,1614.7c-0.2,0-0.4,0-0.6-0.1c-22.1-10.1-69-57.9-71-59.9c-0.6-0.6-0.6-1.5,0-2.1s1.5-0.6,2.1,0
						c0.5,0.5,48.6,49.5,70.1,59.3c0.8,0.3,1.1,1.2,0.7,2C3410.9,1614.4,3410.3,1614.7,3409.7,1614.7z"/>
				</g>
			</g>
			<g>
				<path fill="#3B4C64" d="M3186.9,2759.3c-0.1,0-0.3,0-0.4-0.1c-0.5-0.1-11.8-3.6-12.1-12.9c-0.3-7.6,6.4-11,10-11.8l24.8-5.1
					l28.8-17c0.7-0.4,1.6-0.2,2.1,0.5c0.4,0.7,0.2,1.6-0.5,2.1l-29,17.1c-0.1,0.1-0.3,0.1-0.5,0.2l-25.1,5.1
					c-0.3,0.1-7.9,1.8-7.6,8.7c0.3,7.2,9.8,10.1,9.9,10.2c0.8,0.2,1.2,1.1,1,1.9C3188.1,2758.8,3187.5,2759.3,3186.9,2759.3z"/>
			</g>
			<g>
				<path fill="#F19D63" d="M2850.9,1217.8V983.5c0-11.1,9-20.1,20.1-20.1h234.3c11.1,0,20.1,9,20.1,20.1v234.3
					c0,11.1-9,20.1-20.1,20.1H2871C2859.9,1237.8,2850.9,1228.8,2850.9,1217.8z"/>
				<path fill="#FFFFFF" d="M3082.4,1163.4h-188.5c-6.2,0-11.3,5.1-11.3,11.3v17.7c0,6.2,5.1,11.3,11.3,11.3h188.5
					c6.2,0,11.3-5.1,11.3-11.3v-17.7C3093.7,1168.5,3088.6,1163.4,3082.4,1163.4z"/>
				<path fill="#FDE5A7" d="M3060.2,1069.6c0,14.6-4.4,28.2-11.8,39.6c-12.9,19.6-35.1,32.5-60.3,32.5c-25.2,0-47.4-12.9-60.3-32.5
					c-7.5-11.4-11.8-25-11.8-39.6c0-39.8,32.3-72.1,72.1-72.1C3027.9,997.5,3060.2,1029.8,3060.2,1069.6z"/>
				<ellipse fill="#FFFFFF" cx="2988.1" cy="1037.8" rx="25.1" ry="27.3"/>
				<path fill="#FFFFFF" d="M3048.4,1109.2c-12.9,19.6-35.1,32.5-60.3,32.5c-25.2,0-47.4-12.9-60.3-32.5
					c11.4-23.5,34.1-39.6,60.3-39.6C3014.3,1069.6,3037,1085.6,3048.4,1109.2z"/>
			</g>
		</g>
		<g>
			<polygon fill="#3B4C64" points="2707.1,2317.1 2760.9,2757.8 2734,2757.8 2660.4,2317.1 			"/>
			<polygon fill="#3B4C64" points="2419.9,2317.1 2366.2,2757.8 2393,2757.8 2466.6,2317.1 			"/>
			<path fill="#FFFFFF" d="M2545.5,1558.4h350.3c15.9,0,27.6,14.9,23.8,30.4l-173.8,705.3c-3.3,13.5-15.4,23-29.3,23h-602.3
				c-7.8,0-14.2-6.4-14.2-14.2l0,0c0-7.8,6.4-14.2,14.2-14.2H2687c13.9,0,26-9.5,29.3-23l166.9-676.9c3.8-15.5-7.9-30.4-23.8-30.4
				H2545.5L2545.5,1558.4z"/>
			<polygon fill="#4F6A93" points="2428.7,2317.1 2482.4,2757.8 2455.5,2757.8 2381.9,2317.1 			"/>
			<polygon fill="#4F6A93" points="2141.4,2317.1 2087.7,2757.8 2114.6,2757.8 2188.1,2317.1 			"/>
			<path fill="#80D6D0" d="M2505.6,1587.8l-114.2,475.8c-5.8,24.1,12.5,47.3,37.3,47.3H2737c17.5,0,32.8-11.8,37.2-28.8l122.7-475.8
				c6.3-24.3-12.1-48-37.2-48H2543C2525.2,1558.4,2509.8,1570.6,2505.6,1587.8z"/>
			<path fill="#80D6D0" d="M2687.9,2164.7c-156.7-20.1-346.2-18.5-563.7,1.6c-23.1,2.1-40.8,21.5-40.8,44.7v36.3v25.3
				c0,8.8,7.2,16,16,16H2711c8.8,0,16-7.2,16-16v-25.3v-38.1C2727,2186.7,2710.3,2167.6,2687.9,2164.7z"/>
		</g>
		<g>
			<polygon fill="#3B4C64" points="1423,2317.1 1369.3,2757.8 1396.1,2757.8 1469.7,2317.1 			"/>
			<polygon fill="#3B4C64" points="1701.5,2317.1 1647.7,2757.8 1674.6,2757.8 1748.2,2317.1 			"/>
			<path fill="#FFFFFF" d="M1584.6,1558.4h-350.3c-15.9,0-27.6,14.9-23.8,30.4l173.8,705.3c3.3,13.5,15.4,23,29.3,23h602.3
				c7.8,0,14.2-6.4,14.2-14.2l0,0c0-7.8-6.4-14.2-14.2-14.2h-572.7c-13.9,0-26-9.5-29.3-23l-166.9-676.9
				c-3.8-15.5,7.9-30.4,23.8-30.4H1584.6L1584.6,1558.4z"/>
			<polygon fill="#4F6A93" points="1710.2,2317.1 1764,2757.8 1737.1,2757.8 1663.5,2317.1 			"/>
			<polygon fill="#4F6A93" points="1988.7,2317.1 2042.5,2757.8 2015.6,2757.8 1942,2317.1 			"/>
			<path fill="#80D6D0" d="M1624.5,1587.8l114.2,475.8c5.8,24.1-12.5,47.3-37.3,47.3h-308.3c-17.5,0-32.8-11.8-37.2-28.8
				l-122.7-475.8c-6.3-24.3,12.1-48,37.2-48h316.7C1604.9,1558.4,1620.4,1570.6,1624.5,1587.8z"/>
			<path fill="#80D6D0" d="M1442.3,2164.7c156.7-20.1,346.2-18.5,563.7,1.6c23.1,2.1,40.8,21.5,40.8,44.7v36.3v25.3
				c0,8.8-7.2,16-16,16h-611.7c-8.8,0-16-7.2-16-16v-25.3v-38.1C1403.1,2186.7,1419.9,2167.6,1442.3,2164.7z"/>
		</g>
		<g>
			<g>
				<path fill="#4AA3E9" d="M2276.8,1274.8l-39.2-31.9h-430.1c-18.1,0-32.8-14.7-32.8-32.8v-160.9c0-18.1,14.7-32.8,32.8-32.8h456.3
					c18.1,0,32.8,14.7,32.8,32.8v216.2C2296.7,1275.6,2284.8,1281.3,2276.8,1274.8z"/>
				<path fill="#FFFFFF" d="M2249.9,1070h-428.4c-3.7,0-6.7,3-6.7,6.7v17.3c0,3.7,3,6.7,6.7,6.7h428.4c3.7,0,6.7-3,6.7-6.7v-17.3
					C2256.6,1073,2253.6,1070,2249.9,1070z"/>
				<path fill="#FFFFFF" d="M2249.9,1149.4h-428.4c-3.7,0-6.7,3-6.7,6.7v17.3c0,3.7,3,6.7,6.7,6.7h428.4c3.7,0,6.7-3,6.7-6.7V1156
					C2256.6,1152.4,2253.6,1149.4,2249.9,1149.4z"/>
			</g>
			<circle fill="#CEDCED" cx="2468.7" cy="1423.4" r="4.3"/>
			<g>
				<path fill="#80D6D0" d="M2755.7,1349.3h-211.5c-17.4,0-31.5-14.1-31.5-31.5v-211.5c0-17.4,14.1-31.5,31.5-31.5h211.5
					c17.4,0,31.5,14.1,31.5,31.5v211.5C2787.2,1335.3,2773.1,1349.3,2755.7,1349.3z"/>
				<g>
					<path fill="#FFFFFF" d="M2597.6,1319.1c-0.1,0-0.3,0-0.4,0c-2.4-0.2-4.3-2.1-4.6-4.6l-15-172.9l-18.4,71.7
						c-0.6,2.2-2.6,3.8-4.8,3.8h-19.9c-2.8,0-5-2.2-5-5s2.2-5,5-5h16l24.7-96.3c0.6-2.4,2.8-3.9,5.3-3.7c2.4,0.2,4.4,2.1,4.6,4.6
						l15,173.2l32.4-123.8c0.6-2.2,2.6-3.7,4.8-3.7c0,0,0,0,0,0c2.3,0,4.3,1.6,4.8,3.8l11.7,46.1h39.2l22.3-77.7
						c0.7-2.3,2.9-3.8,5.3-3.6c2.4,0.2,4.3,2.1,4.5,4.5l12.6,129.1l8-48.1c0.4-2.4,2.5-4.2,4.9-4.2h17.4c2.8,0,5,2.2,5,5s-2.2,5-5,5
						h-13.1l-13.5,81.4c-0.4,2.4-2.5,4.2-4.9,4.2c-0.1,0-0.1,0-0.2,0c-2.5-0.1-4.6-2-4.8-4.5l-13.8-140.9l-16.1,56.2
						c-0.6,2.1-2.6,3.6-4.8,3.6H2650c-2.3,0-4.3-1.6-4.8-3.8l-7.9-31.1l-34.8,133.1C2601.8,1317.6,2599.8,1319.1,2597.6,1319.1z"/>
				</g>
			</g>
			<g>
				
					<ellipse transform="matrix(0.7545 -0.6563 0.6563 0.7545 -597.0444 1600.2681)" fill="#FFFFFF" cx="1840.6" cy="1598.2" rx="9.1" ry="25.6"/>
				<path fill="#F18E8B" d="M1844.3,1582.3c0,0,8.2,4.3,14,3.1l25.3,7.4l28,2.7l16-24.1l-36.2-16.4l-33.1,12.2L1844.3,1582.3z"/>
				<path fill="#F8BBBA" d="M1976.3,1592.7l-30.4-20.2l-40.4-26.7l-44.1,7.4l-24.1,25.9c-2.6,2.8-0.6,7.4,3.2,7.4
					c2.8,0,6.2-0.8,9.5-3.4c9-7,18.3-14.7,18.3-14.7h30l12.5,10.3l-9,9.7c0,0-43.6-2.3-47.1,2.3c-3.5,4.7,4.3,10.5,13.6,11.7
					c9.3,1.2,43.6,14,59.2,7l38.9,30.5L1976.3,1592.7z"/>
				<path fill="#FFFFFF" d="M2307.4,1528.8c-56,44.2-108.4,97.4-155.1,151.7c-63-33.7-126.1-67.4-190.8-102.7
					c-15.3,26.2-21,57.9-18.7,87.1c48.6,39,101.1,73.1,156.6,101.4c11.2,5.7,22.7,11.2,35,13.3c24.3,4.1,50.5-6.8,61.7-25.4
					c34.6-34.2,69.3-68.5,103.9-99.8c9.2-30.4,14.2-62.1,14.9-93.9C2315.4,1549.8,2316.2,1535.4,2307.4,1528.8z"/>
				
					<ellipse transform="matrix(0.7545 -0.6563 0.6563 0.7545 -591.3501 1603.0684)" fill="#3B4C64" cx="1847.2" cy="1592" rx="5.3" ry="8.8"/>
			</g>
			<g>
				<path fill="#F8BBBA" d="M2151.7,2575.7l34.9,88.8c0,0-8.4,32.8,21.1,39.2s66.4-28.1,66.4-28.1l-26.6-104.5L2151.7,2575.7z"/>
				<path fill="#4F6A93" d="M2061.7,2757.8h234.5c0,0,8.8-59.7-22.1-82.2c0,0-53.1,24.2-87.5-11.1l-91.8,54.3l-36.3,7.4
					c-6.1,1.3-11,6-12.4,12.1l0,0C2043.9,2748.3,2051.4,2757.8,2061.7,2757.8z"/>
				<path fill="#4F6A93" d="M2279.6,2024.1c-72.7,30.2-141.4,70-203.7,118c-20.4,15.7-41.1,33.8-48,58.6c-7,25,1.5,51.5,9.9,76.1
					c34.8,101.6,82.7,248.7,113.9,351.6c23.5,8.5,41.8,11.4,66.7,9.4c18.7-1.5,41.9-17.6,51.8-29.5
					c-21.1-108.4-51.2-251.7-73.2-365.4c68.3-19.1,136.7-38.3,205-57.4c20.7-5.8,42.8-12.5,55.8-29.6c10.2-13.3,13-31.1,11.3-47.8
					c-1.7-16.7-7.7-32.6-10.9-49.2c-17.4-6.3-32.5-17.7-49.9-23.9c-10.2-3.6-21-5.3-31.6-7
					C2352.4,2024.1,2324.5,2005.4,2279.6,2024.1z"/>
				<path fill="#F8BBBA" d="M2299.5,2575.7l34.9,88.8c0,0-8.4,32.8,21.1,39.2s66.4-28.1,66.4-28.1l-26.6-104.5L2299.5,2575.7z"/>
				<path fill="#4F6A93" d="M2209.4,2757.8h234.5c0,0,8.8-59.7-22.1-82.2c0,0-53.1,24.2-87.5-11.1l-91.8,54.3l-36.3,7.4
					c-6.1,1.3-11,6-12.4,12.1l0,0C2191.6,2748.3,2199.2,2757.8,2209.4,2757.8z"/>
				<path fill="#4F6A93" d="M2427.4,2024.1c-72.7,30.2-141.4,70-203.7,118c-20.4,15.7-41.1,33.8-48,58.6c-7,25,1.5,51.5,9.9,76.1
					c34.8,101.6,82.7,248.7,113.9,351.6c23.5,8.5,41.8,11.4,66.7,9.4c18.7-1.5,41.9-17.6,51.8-29.5
					c-21.1-108.4-51.2-251.7-73.2-365.4c68.3-19.1,136.7-38.3,205-57.4c20.7-5.8,42.8-12.5,55.8-29.6c10.2-13.3,13-31.1,11.3-47.8
					c-1.7-16.7-7.7-32.6-10.9-49.2c-17.4-6.3-32.5-17.7-49.9-23.9c-10.2-3.6-21-5.3-31.6-7
					C2500.2,2024.1,2472.3,2005.4,2427.4,2024.1z"/>
				<g>
					<path fill="#3B4C64" d="M2299.5,2629.9c-0.6,0-1.2-0.4-1.4-1.1c-29.4-97-76.3-241.6-113.9-351.6c-7.7-22.5-17.3-50.6-9.9-77
						c7.3-25.8,28.9-44.2,48.6-59.4c62.5-48.2,131.1-88,204-118.2c0.8-0.3,1.6,0,2,0.8c0.3,0.8,0,1.6-0.8,2
						c-72.6,30.1-141.1,69.8-203.3,117.8c-19.3,14.9-40.5,32.9-47.5,57.8c-6.6,23.6,0.5,48,9.9,75.2
						c37.7,110,84.5,254.7,113.9,351.7c0.2,0.8-0.2,1.6-1,1.9C2299.7,2629.9,2299.6,2629.9,2299.5,2629.9z"/>
				</g>
			</g>
			<path fill="#4AA3E9" d="M2486.2,1516.5l-58.8-16.1l-80.2,16.1l-50.5,385.1L2272,2030c0,0,77.7,29.3,164.1,8.3
				c86.4-21,85.3-126.3,85.3-126.3l7-241.7L2486.2,1516.5z"/>
			<path fill="#F8BBBA" d="M2460.8,1436.5c0.4,23.7,1.6,47.3,3.7,71.1c-15.8,22.7-41.8,38.1-69.8,39.1
				c-16.5-14.8-23.3-39.6-16.7-60.8c0.5-1.8,1.2-3.5,2.5-4.8c1.2-1.1,2.7-1.7,4.2-2.3C2411.6,1468.1,2436.7,1453.2,2460.8,1436.5z"
				/>
			<g>
				<path fill="#FFFFFF" d="M2576.2,1657.7c-3.9,154.4,15.1,309.4,56.2,458.4c-36.9,43-96.8,53.9-152.1,62.5
					c-27.7,4.3-55.4,8.6-83.1,12.9c6.8-108.5,5.4-213.5-4.1-317.8c-0.3-128.3,24.7-256.7,72.7-373.2c20.4,3.8,37.4,13.8,56.2,22.3
					c18.8,8.6,33,17,49.6,29.1C2572.4,1583.3,2577,1625.4,2576.2,1657.7z"/>
				<g>
					<path fill="#CEDCED" d="M2412.4,1711.2c-0.2,0-0.4,0-0.6-0.1c-0.8-0.3-1.1-1.2-0.8-2c14-34.1,31.2-67.1,51.1-98.2l0.1-0.2
						c1.6-2.5,3.3-5.1,4.2-7.9c3.4-10.3-3.1-21.1-9.4-30.4c-0.2-0.4-0.3-0.8-0.2-1.2s0.4-0.8,0.8-1l18.3-9.6c1.2-0.6,2.2-1.2,2.6-2
						c0.4-0.7,0.4-1.7,0.3-2.9l-2.8-44.4c-0.1-0.8,0.6-1.5,1.4-1.6c0.8,0,1.5,0.6,1.6,1.4l2.8,44.4c0.1,1.3,0.2,3-0.6,4.5
						c-0.9,1.7-2.6,2.6-3.9,3.3l-16.8,8.8c6.8,10.2,12.4,21.1,8.8,31.6c-1,3.1-2.8,5.9-4.5,8.6l-0.1,0.2
						c-19.8,30.9-36.9,63.8-50.9,97.7C2413.6,1710.8,2413,1711.2,2412.4,1711.2z"/>
				</g>
				<g>
					<path fill="#CEDCED" d="M2517.1,2056.3c-6.7,0-13.2-1.6-18.9-3.1c-13.3-3.5-26.6-8-39.4-12.4c-3.3-1.1-7.8-2.6-10.2-6.3
						c-1.9-2.9-2.1-6.4-2.3-9.2c-0.6-9.6-1.2-19.5-2.7-29c-0.1-0.5,0.1-0.9,0.4-1.3c0.3-0.3,0.8-0.5,1.3-0.4
						c39.5,5.1,81.2-1.3,117.4-17.8c0.4-0.2,0.9-0.2,1.3,0c0.4,0.2,0.7,0.6,0.8,1c2.7,13.9,4.4,28.1,5,42.2c0.1,3.1,0.1,6.2-1.2,9
						c-1.4,2.8-4,4.8-6.1,6.4c-14.8,11.2-28.3,20.5-44.4,20.9C2517.8,2056.3,2517.4,2056.3,2517.1,2056.3z M2446.8,1997.8
						c1.3,9,1.9,18.3,2.4,27.3c0.2,2.7,0.4,5.6,1.8,7.8c1.7,2.6,4.9,3.9,8.6,5.1c12.8,4.3,26,8.8,39.2,12.3c5.7,1.5,12.4,3.1,19.1,3
						c15.2-0.4,28.3-9.4,42.7-20.3c1.9-1.5,4.1-3.1,5.2-5.3c1-2.1,1-4.7,0.9-7.5c-0.6-13.4-2.1-26.8-4.6-39.9
						C2526.5,1996.2,2485.7,2002.4,2446.8,1997.8z"/>
				</g>
				<path fill="#FFFFFF" d="M2376,1507c-20.3,141.3-35.8,283.3-47.3,424.6c-2.4,25.5-5.5,52.6-21.5,72.6
					c-18,22.6-48.1,30.9-77.6,42.7c21.4-56.5,34.3-116.3,39-176.7c13-98.2,20.9-197.2,23.5-296.1c4-16.3,10-32.1,15.2-45.5
					C2329.7,1519,2352.7,1511,2376,1507z"/>
				<g>
					<path fill="#CEDCED" d="M2351,1663.6c-0.6,0-1.2-0.4-1.4-1l-18.5-57c-0.4-1.1-0.8-2.5-0.7-3.9c0.2-2.1,1.3-3.7,2.3-5.1l7.9-11
						c0.9-1.3,1.7-2.4,1.7-3.6c0.1-1-0.5-2.2-0.9-3.2l-6.5-14.5c-0.7-1.6-1.8-3.9-1.2-6.3c0.4-1.9,1.7-3.4,2.9-4.6
						c10.3-11.1,18.6-23.7,24.7-37.5c0.3-0.8,1.2-1.1,2-0.8c0.8,0.3,1.1,1.2,0.8,2c-6.3,14.1-14.8,27-25.2,38.3
						c-1,1.1-1.9,2.1-2.2,3.2c-0.3,1.3,0.3,2.7,1,4.4l6.5,14.5c0.6,1.3,1.3,2.8,1.2,4.6c-0.1,2.1-1.4,3.9-2.3,5.2l-7.9,11
						c-0.9,1.3-1.7,2.4-1.7,3.5c-0.1,0.9,0.3,1.8,0.6,2.7l18.5,57c0.3,0.8-0.2,1.6-1,1.9C2351.3,1663.6,2351.1,1663.6,2351,1663.6z"
						/>
				</g>
			</g>
			<g>
				<path fill="#3B4C64" d="M2173.2,1859.3c-29.5,0-63.9-12.7-79.5-20.2c-0.1,0-0.1-0.1-0.2-0.1c-37.3-23.9-68.2-47.9-94.2-73.5
					c-9.7-9.6-19.9-19.3-29.8-28.8c-44.3-42.4-90.2-86.3-121.5-138c-0.4-0.7-0.2-1.6,0.5-2.1c0.7-0.4,1.6-0.2,2.1,0.5
					c31.1,51.4,76.8,95.1,121,137.4c9.9,9.4,20.1,19.2,29.8,28.8c25.9,25.4,56.5,49.3,93.6,73.1c20,9.6,52.9,19.9,78.2,19.9
					c0,0,0.1,0,0.1,0c25.7,0,51.4-14.6,78.4-44.6c60.4-67.1,91.8-156.5,122.1-243l3.8-10.7c0.3-0.8,1.1-1.2,1.9-0.9
					c0.8,0.3,1.2,1.1,0.9,1.9l-3.8,10.7c-30.4,86.8-61.9,176.5-122.7,244c-27.6,30.7-54,45.6-80.6,45.6
					C2173.3,1859.3,2173.3,1859.3,2173.2,1859.3z"/>
			</g>
			<g>
				<path fill="#1E3A45" d="M2342.1,1376.8c-9.3-5.3-18-12.6-22.3-22.5c-4.3-9.8-3.4-22.4,4.2-30c2-2,4.4-3.6,6.3-5.8
					c2.2-2.5,3.7-5.6,5.6-8.3c7.1-10.1,23.5-14,32-5.1c15.7-19.7,43.6-25.8,68.7-22.9c4.9,0.6,9.8,1.4,14.1,3.7c5,2.6,8.9,7,12,11.7
					c5.2,7.9,8.6,17,9.7,26.4c16.1-3.3,32.2,10.6,35.3,26.7c3.2,16.1-4,32.8-14.8,45.1c-7,9.8-14,19.5-21,29.3
					c-15.2,2.1-30.9,4.2-45.8,0.4c-12.4-3.2-23.4-10.5-34.1-17.6C2376,1397.2,2359.8,1386.7,2342.1,1376.8z"/>
				<path fill="#F8BBBA" d="M2333.3,1371.2c3.5,17.3,2.5,35.1,4,52.7c1.5,17.6,6,35.8,18.3,48.4c6.7,6.8,15.2,11.5,24,15.2
					c6.4,2.6,13.2,4.8,20.1,4.5c8.7-0.4,16.8-4.6,24.4-8.9c15.9-9.1,32.4-20.2,37-36.5c15-4.5,26-20,25.1-35.7
					c-0.2-3-0.8-6.1-2.7-8.5c-4.1-5.1-12.7-4.3-17.7-0.1c-5,4.3-7.4,10.8-9.7,17.1c-3.8-1-7.9-2.1-10.5-5.1
					c-4.9-5.7-1.7-14.4,1.7-21.1c-8.9-8.9-11.3-23.8-7.3-34.8c-10,10.2-23.2,17.5-37.4,18.8c-14.2,1.3-29.2-3.8-38.4-14.6
					C2357.7,1371.9,2345.3,1376.6,2333.3,1371.2z"/>
				<path fill="#FFFFFF" d="M2374.9,1446.7c12.5-1.8,24.8-5.1,36.5-10c-0.8,6.6-1.9,13.9-7,18.2c-3,2.6-7.1,3.7-11.1,4.2
					c-3.5,0.4-7.3,0.3-10.3-1.6C2379.4,1455.2,2377.8,1450.9,2374.9,1446.7z"/>
				<g>
					<path fill="#F18E8B" d="M2394.2,1491c-7.5,0-14.8-1.7-21.6-5c-0.7-0.4-1.1-1.3-0.7-2c0.4-0.7,1.3-1.1,2-0.7
						c41.4,20.3,83.3-31.5,83.8-32c0.5-0.6,1.5-0.8,2.1-0.2c0.6,0.5,0.8,1.5,0.2,2.1c-0.4,0.6-11,13.7-27,24.4
						C2419.7,1486.5,2406.6,1491,2394.2,1491z"/>
				</g>
			</g>
			<g>
				<path fill="#F8BBBA" d="M2354.7,1674.8c-10.6-10.3-21.9-21.9-23.8-36.6c-0.4-3.5-0.3-7.2-1.3-10.6c-1.9-6.6-7.9-11.7-8.8-18.5
					c-0.2-1.4-0.2-3-0.9-4.2c-1.6-2.9-6.2-2.7-8.6-0.3s-3,5.8-3.4,9.1c-0.8,6.4-0.9,12.9-0.6,19.4c-9.2-3-16.8-7-23.9-11.7
					c-6.6-7.1-13.3-14.7-20-22.2c-1.7-1.9-3.3-3.8-5.3-5.4c-1.4-1.2-3.4-2.2-5.1-1.4c-1.4,0.6-2.1,2.4-2,3.9c0.1,1.6,0.9,3,1.6,4.4
					c5.4,10,11.7,19.6,18.8,28.5c-12.3-10.5-23.5-20.5-34.7-30.4c-0.3-0.2-0.5-0.5-0.9-0.5c-0.4-0.1-0.8,0.1-1.2,0.3
					c-5,2.6-6.7,9.9-3.3,14.4c-2.5,2.2-3.5,4.9-3.1,7.3c0.4,2.4,1.7,4.5,3.1,6.5c-2.6,3.5-1.2,6.7,0.3,9.2
					c5.4,8.7,11.8,16.8,19,24.2c15.4,13.1,31.6,22.2,48.9,28.1c7.3,6.6,14.3,12.6,22.3,19c2.5-1.1,4.3-3.2,6.1-5.2
					c4.7-5.5,9.3-10.9,14-16.4C2344,1683.1,2346.1,1680.6,2354.7,1674.8z"/>
				<path fill="#FFFFFF" d="M2448.6,1738.7c16.9-28.6,32.1-58.2,45.6-88.6c14-37.9,42.3-80.6,77.4-98.3
					c18.3,16.2,25.6,52.5,25.5,77.2c-0.1,24.7-7.6,48.7-16.9,71.6c-19.7,48.6-47.7,93.7-83.9,131.6c-14.6,12.8-36.8,13.9-55,7.3
					c-18.3-6.6-33.4-19.6-47.4-33c-30.6-29.3-58.2-61.7-83.6-97.8c8.4-10.8,17.4-21.1,26.7-31c5.7-6.1,11.9-12.3,20.4-15.1
					C2386.3,1688.6,2416.1,1713.9,2448.6,1738.7z"/>
				<g>
					<path fill="#CEDCED" d="M2467.6,1760.4c-0.4,0-0.7-0.1-1-0.4c-35.9-32-72.9-64-109.7-95.1c-0.6-0.5-0.7-1.5-0.2-2.1
						c0.5-0.6,1.5-0.7,2.1-0.2c36.9,31.1,73.8,63.1,109.7,95.2c0.6,0.6,0.7,1.5,0.1,2.1C2468.5,1760.2,2468,1760.4,2467.6,1760.4z"
						/>
				</g>
				<g>
					<path fill="#CEDCED" d="M2446.3,1741.8c-0.3,0-0.5-0.1-0.8-0.2c-0.7-0.4-1-1.3-0.5-2.1c19.5-33.3,37.7-67.8,54.1-102.6
						c0.4-0.7,1.2-1.1,2-0.7c0.7,0.4,1.1,1.2,0.7,2c-16.5,34.9-34.8,69.5-54.3,102.9C2447.3,1741.5,2446.8,1741.8,2446.3,1741.8z"/>
				</g>
				<g>
					<path fill="#CEDCED" d="M2490.6,1657.8c-0.8,0-1.4-0.6-1.5-1.4c-0.5-7.5-0.4-15.1,0.4-22.5c0.1-0.8,0.8-1.4,1.6-1.3
						c0.8,0.1,1.4,0.8,1.3,1.6c-0.7,7.3-0.8,14.7-0.3,22.1c0.1,0.8-0.6,1.5-1.4,1.6C2490.6,1657.8,2490.6,1657.8,2490.6,1657.8z"/>
				</g>
			</g>
			<g>
				<path fill="#3B4C64" d="M2379,1559.9c-0.5,0-0.9-0.2-1.2-0.6c-20-29-20.5-43.2-16.7-79.5c0.1-0.8,0.8-1.4,1.6-1.3
					c0.8,0.1,1.4,0.8,1.3,1.6c-3.6,35-3.2,49,15.5,76.5c50.3-20.7,85.5-74.1,87.7-133.2c0-0.8,0.7-1.5,1.6-1.4
					c0.8,0,1.5,0.7,1.4,1.6c-1.1,29.3-9.9,57.6-25.6,81.8c-16.3,25.2-38.8,44-65,54.5C2379.4,1559.9,2379.2,1559.9,2379,1559.9z"/>
			</g>
		</g>
		<g>
			<polygon fill="#F8BBBA" points="1751.6,1753.3 1767.3,1819.5 1885.9,1988.5 1918.6,2015.9 1927.6,2038.3 1856.3,2026.6 
				1839.9,1997.4 1698,1843.5 1686.6,1751.8 			"/>
			<path fill="#F8BBBA" d="M1861,2569.4l-7.8,38.2l-15.6,18.7c0,0-14.8,39.5,28,45.2c42.8,5.7,57.6-28.8,57.6-28.8l17.9-53.7
				L1861,2569.4z"/>
			<path fill="#F8BBBA" d="M2155.1,2582.9l21.3,55l-3.4,23.9c0,0,11.7,32.7,38.2,31.2c26.5-1.6,40-35.3,40-35.3l-11.9-94
				L2155.1,2582.9z"/>
			<path fill="#FE7288" d="M1785.4,1982.8l287.5,92.9c0,0,70.1,25.7,73.6,115.6l109.8,370.3c0,0-48.2,41-127.5,31.6v-37.4
				l-107.9-327.1c0,0-335.7-53.7-395.3-98.1c-59.6-44.4,0-147.8,0-147.8H1785.4z"/>
			<path fill="#FE7288" d="M1444.2,2074.5c0,0,16.2,116.8,146.6,127.3c130.4,10.5,303.3,28,303.3,28l-57.2,344.6
				c0,0,73.6,32.7,134.3,26.9V2543l75.9-318.9c0,0,26.9-63.1,0-100.5c-26.9-37.4-196.4-64.3-261.8-76.5
				c-65.3-12.3-164.6-31.2-164.6-31.2L1444.2,2074.5z"/>
			<path fill="#F19D63" d="M1837.6,2626.3l-35.2,26.3c-9.2,6.9-10.9,20.1-3.8,29.1c20.4,25.8,61.3,72.5,91.6,76h160.9
				c0,0,12.5-32.6-19.7-41.4c-32.2-8.8-60.2-14-60.2-14l-48-59.7C1923.3,2642.6,1870.6,2676.9,1837.6,2626.3z"/>
			<path fill="#F19D63" d="M2173,2661.9l-15.2,67.5c-3.3,14.6,7.8,28.4,22.7,28.4h206.8c0,0,24.9-37.5-14.5-43.5
				c-39.5-6-57.4-12.5-57.4-12.5l-64.4-44.1C2251.2,2657.7,2205.5,2693,2173,2661.9z"/>
			<g>
				<path fill="#E25470" d="M2047.1,2225.6c-0.2,0-0.4,0-0.6-0.1c-0.8-0.3-1.1-1.2-0.8-2c0.3-0.6,26.2-62.7,0.2-99
					c-23.7-33-162.7-58.1-237.3-71.6c-8.6-1.6-16.7-3-23.5-4.3c-64.6-12.1-163.6-31-164.6-31.2c-0.8-0.2-1.3-0.9-1.2-1.8
					s0.9-1.3,1.8-1.2c1,0.2,100,19,164.6,31.2c6.8,1.3,14.9,2.7,23.5,4.3c75.1,13.6,214.8,38.8,239.2,72.8
					c27,37.6,1.3,99.3,0.2,101.9C2048.3,2225.2,2047.7,2225.6,2047.1,2225.6z"/>
			</g>
			<path fill="#F19D63" d="M1413.8,2104c27.7,10.8,59.1,8,87.3-1.1c28.3-9.1,54.2-24.1,80.5-37.9c64.9-34.2,133.3-61.8,203.8-82.2
				c-20.2-48-40.3-93.4-71.1-131.4c-0.3-103.1-31.4-202.7-62.2-300.6c-31.8-9.3-62.2-15.7-95.5-18.7c-55.2-9.6-115.8-3.6-160.3,29.8
				C1408.6,1742.5,1420.9,1923.4,1413.8,2104z"/>
			<path fill="#F19D63" d="M1652.1,1550.9c20.8,7.2,46.1,29.6,60.8,51.9c8.5,12.8,14,27.3,19.5,41.6c14.9,39,29.8,78.1,42.4,117.2
				c-23.7,9.8-48.5,16.9-71.4,18.6c-12.1-14.6-19-32.7-25.1-50.6c-11.8-34.8-21.5-70.4-28.9-106.4
				C1644.4,1599,1640.9,1571.4,1652.1,1550.9z"/>
			<g>
				<path fill="#E28059" d="M1713.9,1817.6c-0.8,0-1.5-0.6-1.5-1.4c-3.4-59.6-16.8-123.5-41-195.4c-0.3-0.8,0.2-1.6,0.9-1.9
					c0.8-0.3,1.6,0.2,1.9,0.9c24.3,72.1,37.8,136.3,41.2,196.2C1715.5,1816.8,1714.9,1817.5,1713.9,1817.6
					C1714,1817.6,1714,1817.6,1713.9,1817.6z"/>
			</g>
			<path fill="#F8BBBA" d="M1315.1,1790.2c-7.1,15.7-9.9,28.7-14.7,43.2c-4.8,14.4-7,31,0.1,44.4c6.1,11.6,18,18.8,29.5,25.2
				c86,47.8,180.8,79.8,276.7,94.4c6.4-13.2,12.7-26.4,18.8-39.3c-74.6-40.2-149.9-79-227.4-115.2c3.1-16.1,5.1-32.4,5-51.5
				c-20.7,2.2-41.6,2.4-62.3,0.5C1331.1,1791,1321.2,1789.7,1315.1,1790.2z"/>
			<g>
				<path fill="#E28059" d="M1649.8,1913.5c-0.2,0-0.4,0-0.6-0.1c-55.7-22.5-102.8-66.3-129.3-120.2c-0.4-0.7-0.1-1.6,0.7-2
					c0.7-0.4,1.6-0.1,2,0.7c26.2,53.2,72.7,96.5,127.7,118.8c0.8,0.3,1.1,1.2,0.8,2C1650.9,1913.2,1650.4,1913.5,1649.8,1913.5z"/>
			</g>
			<g>
				<path fill="#E28059" d="M1538.3,1596.5c-8.8,0-18.2-2.1-27-6.3c-10-4.6-19.8-11.8-30-21.9c-0.6-0.6-0.6-1.5,0-2.1s1.5-0.6,2.1,0
					c10,9.8,19.5,16.8,29.2,21.3c11.7,5.4,24,7.2,34.9,5.1c6-1.2,11.9-3.6,17.6-5.9c2.1-0.9,4.3-1.8,6.5-2.6
					c0.8-0.3,1.6,0.1,1.9,0.9c0.3,0.8-0.1,1.6-0.9,1.9c-2.1,0.8-4.3,1.7-6.4,2.5c-5.8,2.4-11.8,4.8-18.1,6.1
					C1544.9,1596.2,1541.7,1596.5,1538.3,1596.5z"/>
			</g>
			<g>
				<path fill="#6E4931" d="M1605.8,1403.4c16.1-8.7,25.3-28.4,21.7-46.4c-2.9-14.6-13.4-27-26.1-34.8s-27.5-11.5-42.3-13.7
					c-20.8-3.1-42.5-3.4-62.1,4.1c-19.6,7.5-36.7,23.8-40.8,44.4c-8.2,1.5-14.8,8-18.6,15.4c-3.8,7.4-5.2,15.8-6.6,24.1
					c-0.5,2.9-1,5.9-0.2,8.8c0.8,3.1,2.9,5.7,5,8.1c15.7,18.7,31.8,37.2,50.1,56.6c14.3,7.8,32.5,5.4,46.9-2.2
					c14.4-7.6,25.8-19.8,36.8-31.9C1580.5,1423.8,1591.4,1411.2,1605.8,1403.4z"/>
				<path fill="#F8BBBA" d="M1612,1372.8c5.7,26.3,7.3,53.4,4.6,80.2c-2.2,22-9.2,46.4-28.8,56.7c-6.9,3.7-14.9,5.1-22.7,5.5
					c-27.8,1.3-55.9-11.6-75.8-37c-9.4,1.3-17.8-6.6-21.7-15.3c-2.3-5.2-3.5-11.2-1.7-16.6c2.1-6.3,8.4-11.1,15.1-11.2
					c6.7-0.2,13.2,4.2,17.1,11.7c1.9,4.8,3.9,9.6,5.8,14.3c4.4-0.7,5.3-6.5,5.3-10.9c-0.2-20.6-0.4-41.1,1.8-63.9
					c3.9,4.2,7.8,8.5,12.7,11.6s10.7,4.9,16.4,3.7c10-2.1,16-15.1,11.1-24.2c10.9,10.2,25.2,16.8,40,18.6c3,0.4,6.2,0.5,9-0.6
					c4-1.6,6.7-5.4,8-9.5S1609.3,1377.4,1612,1372.8z"/>
				<g>
					<path fill="#F18E8B" d="M1570.2,1481.9c-9,0-18-2.4-25.6-7.1c-0.7-0.4-0.9-1.4-0.5-2.1c0.4-0.7,1.4-0.9,2.1-0.5
						c13,8,30.2,8.8,43.9,2.1c0.7-0.4,1.6-0.1,2,0.7c0.4,0.7,0.1,1.6-0.7,2C1584.8,1480.3,1577.5,1481.9,1570.2,1481.9z"/>
				</g>
				<path fill="#F8BBBA" d="M1496.2,1475.5c-4.8,19-11.5,37.6-20.3,56.2c5,18.6,19,34.6,36.8,42c17.8,7.4,39,6.1,55.7-3.5
					c4.5-2.6,9.2-6.6,9.5-10.7c-0.5-19.8-2.3-39.5-6.6-60.1C1545.1,1498.3,1519.2,1489.8,1496.2,1475.5z"/>
				<g>
					<path fill="#F18E8B" d="M1557.4,1517c-19.5,0-34.2-6.3-44-12.6c-14.7-9.4-21.6-20.6-21.9-21.1c-0.4-0.7-0.2-1.6,0.5-2.1
						c0.7-0.4,1.6-0.2,2.1,0.5c0.1,0.1,7,11.2,21.1,20.2c13,8.3,35,16.7,65.9,9.1c0.8-0.2,1.6,0.3,1.8,1.1s-0.3,1.6-1.1,1.8
						C1573,1516,1564.8,1517,1557.4,1517z"/>
				</g>
			</g>
			<path fill="#F19D63" d="M1396.2,1561.9c-15.9,13-31,26-43.4,42.4c-14.2,18.8-23,41.1-30.6,63.5c-7.7,22.5-14.3,45.4-20.9,68.3
				c-5.9,20.3-8.5,37.3-16.3,56.5c30.1,8.3,57.8,17,89,19.3c17.1,1.3,35,1.5,48-4.7c5-40.2,9.3-80.5,9.4-118.2
				c4.9-13.9,3-29.1,0.4-43.6c-4.1-23.5-9.7-46.8-16.8-69.6c-1.2-3.8-2.5-7.8-5.4-10.6C1406.8,1562.5,1400.8,1561.6,1396.2,1561.9z"
				/>
			<g>
				<path fill="#E28059" d="M1420.9,1810.2c-0.1,0-0.1,0-0.2,0c-0.8-0.1-1.4-0.9-1.3-1.7c5.1-39.6,8.7-79.8,10.9-119.7
					c0-0.8,0.8-1.5,1.6-1.4c0.8,0,1.5,0.8,1.4,1.6c-2.2,39.9-5.8,80.3-10.9,119.9C1422.3,1809.6,1421.7,1810.2,1420.9,1810.2z"/>
			</g>
			<g>
				<path fill="#E28059" d="M1431.2,1705.4c-0.3,0-0.7-0.1-1-0.4c-0.6-0.5-0.7-1.5-0.2-2.1c4.8-5.5,9.1-11.5,12.9-17.8
					c0.4-0.7,1.3-0.9,2.1-0.5c0.7,0.4,0.9,1.3,0.5,2.1c-3.8,6.4-8.3,12.6-13.2,18.2C1432,1705.2,1431.6,1705.4,1431.2,1705.4z"/>
			</g>
			<g>
				<path fill="#F2ADDB" d="M1701.2,1542.4l39.2-31.9h430.1c18.1,0,32.8-14.7,32.8-32.8v-160.9c0-18.1-14.7-32.8-32.8-32.8h-456.3
					c-18.1,0-32.8,14.7-32.8,32.8V1533C1681.4,1543.2,1693.3,1548.9,1701.2,1542.4z"/>
				<path fill="#FFFFFF" d="M1728.1,1337.6h428.4c3.7,0,6.7,3,6.7,6.7v17.3c0,3.7-3,6.7-6.7,6.7h-428.4c-3.7,0-6.7-3-6.7-6.7v-17.3
					C1721.5,1340.6,1724.5,1337.6,1728.1,1337.6z"/>
				<path fill="#FFFFFF" d="M1728.1,1417h428.4c3.7,0,6.7,3,6.7,6.7v17.3c0,3.7-3,6.7-6.7,6.7h-428.4c-3.7,0-6.7-3-6.7-6.7v-17.3
					C1721.5,1420,1724.5,1417,1728.1,1417z"/>
			</g>
			<path fill="#F8BBBA" d="M1625.5,1958.1l74.8,13.2l39.5,27.4l14.7,37.4c1.4,3.6-1,7.5-4.9,7.8c-10.3,0.9-28.8,1.5-39.9-3.5
				l-9.9-20.8l-11.4-7.8c0,0-37.4,10.4-55.6-6.2l-26.2-8.2C1606.7,1997.4,1600.5,1975,1625.5,1958.1z"/>
			<g>
				<path fill="#F18E8B" d="M1674.6,1988.4c-0.4,0-0.9-0.2-1.2-0.6c-0.5-0.7-0.4-1.6,0.3-2.1c7.5-5.9,22.6-8.5,23.3-8.6
					c0.8-0.1,1.6,0.4,1.7,1.2s-0.4,1.6-1.2,1.7c-0.1,0-15,2.6-21.9,8C1675.3,1988.3,1674.9,1988.4,1674.6,1988.4z"/>
			</g>
			<g>
				<path fill="#F18E8B" d="M1746.3,2045.7c-0.6,0-1.2-0.4-1.4-0.9l-16-39.1l-28.4-17.4c-0.7-0.4-0.9-1.4-0.5-2.1
					c0.4-0.7,1.4-0.9,2.1-0.5l28.8,17.7c0.3,0.2,0.5,0.4,0.6,0.7l16.2,39.6c0.3,0.8-0.1,1.6-0.8,2
					C1746.7,2045.6,1746.5,2045.7,1746.3,2045.7z"/>
			</g>
			<g>
				<path fill="#F18E8B" d="M1732,2045.7c-0.6,0-1.2-0.4-1.4-1.1l-10.5-33.3l-31.2-18.7c-0.7-0.4-0.9-1.3-0.5-2.1s1.3-0.9,2.1-0.5
					l31.7,18.9c0.3,0.2,0.6,0.5,0.7,0.8l10.6,33.9c0.2,0.8-0.2,1.6-1,1.9C1732.3,2045.6,1732.1,2045.7,1732,2045.7z"/>
			</g>
			<g>
				<path fill="#F18E8B" d="M1723.8,2045.4c-0.5,0-1.1-0.3-1.3-0.8l-16-30.9l-26.7-15c-0.7-0.4-1-1.3-0.6-2c0.4-0.7,1.3-1,2-0.6
					l27.1,15.2c0.3,0.1,0.5,0.4,0.6,0.6l16.3,31.3c0.4,0.7,0.1,1.6-0.6,2C1724.3,2045.3,1724.1,2045.4,1723.8,2045.4z"/>
			</g>
		</g>
	</g>
	<g>
		<path fill="#3B4C64" d="M4340,2770.3H340c-2.8,0-5-2.2-5-5s2.2-5,5-5h4000c2.8,0,5,2.2,5,5S4342.8,2770.3,4340,2770.3z"/>
	</g>
</g>
</svg>
